<?xml version="1.0" encoding="utf-8"?>
<!-- Generator: Adobe Illustrator 27.5.0, SVG Export Plug-In . SVG Version: 6.00 Build 0)  -->
<svg version="1.1" xmlns="http://www.w3.org/2000/svg" xmlns:xlink="http://www.w3.org/1999/xlink" x="0px" y="0px"
	 viewBox="0 0 750 500" style="enable-background:new 0 0 750 500;" xml:space="preserve">
<g id="Background_Complete">
	<g>
		<g>
			<g>
				<path style="fill:#EBEBEB;" d="M53.804,198.753c1.74-1.051,3.592-1.849,5.502-2.391l1.133-5.446l9.202-0.161l1.324,5.402
					c1.928,0.475,3.807,1.207,5.583,2.197l4.65-3.048l6.621,6.393l-2.883,4.754c1.052,1.741,1.849,3.593,2.391,5.504l5.446,1.133
					l0.162,9.201l-5.403,1.325c-0.475,1.928-1.207,3.807-2.196,5.583l3.048,4.651l-6.392,6.621l-4.754-2.883
					c-1.74,1.052-3.593,1.848-5.503,2.391l-1.134,5.446l-9.201,0.161l-1.325-5.403c-1.928-0.475-3.807-1.207-5.583-2.197
					l-4.65,3.049l-6.621-6.393l2.883-4.754c-1.052-1.74-1.849-3.592-2.391-5.503l-5.446-1.133l-0.161-9.201l5.403-1.325
					c0.475-1.928,1.207-3.807,2.197-5.583l-3.048-4.651l6.392-6.621L53.804,198.753L53.804,198.753z M58.709,211.011
					c-3.787,3.923-3.677,10.173,0.246,13.96c3.922,3.787,10.173,3.677,13.96-0.246c3.787-3.923,3.677-10.173-0.245-13.96
					C68.746,206.979,62.496,207.089,58.709,211.011z"/>
			</g>
		</g>
	</g>
	<g>
		<g>
			<g>
				<path style="fill:#EBEBEB;" d="M67.355,65.581c1.74-1.051,3.592-1.848,5.502-2.391l1.133-5.446l9.202-0.161l1.324,5.402
					c1.928,0.475,3.808,1.207,5.583,2.197l4.65-3.049l6.621,6.393l-2.882,4.754c1.052,1.74,1.849,3.593,2.391,5.504l5.446,1.133
					l0.162,9.201l-5.403,1.325c-0.475,1.928-1.207,3.807-2.196,5.582l3.048,4.651l-6.392,6.621l-4.754-2.883
					c-1.74,1.052-3.593,1.849-5.503,2.391l-1.134,5.446l-9.201,0.161l-1.324-5.403c-1.928-0.475-3.807-1.207-5.583-2.197
					l-4.65,3.049l-6.621-6.392l2.883-4.754c-1.052-1.74-1.849-3.592-2.391-5.503l-5.446-1.133l-0.161-9.201l5.403-1.325
					c0.475-1.928,1.207-3.807,2.196-5.583l-3.048-4.651l6.392-6.621L67.355,65.581L67.355,65.581z M72.26,77.839
					c-3.787,3.923-3.678,10.173,0.245,13.96c3.922,3.787,10.173,3.677,13.96-0.246c3.787-3.923,3.677-10.173-0.245-13.96
					C82.297,73.806,76.047,73.916,72.26,77.839z"/>
			</g>
		</g>
	</g>
	<g>
		<g>
			<g>
				<path style="fill:#EBEBEB;" d="M268.141,117.225c2.1-1.269,4.337-2.232,6.643-2.887l1.368-6.576l11.109-0.195l1.599,6.522
					c2.328,0.574,4.597,1.457,6.741,2.652l5.615-3.681l7.993,7.718l-3.48,5.739c1.27,2.101,2.232,4.338,2.887,6.645l6.575,1.368
					l0.195,11.109l-6.523,1.599c-0.574,2.328-1.457,4.596-2.652,6.74l3.68,5.615l-7.717,7.994l-5.74-3.481
					c-2.101,1.27-4.337,2.232-6.644,2.887l-1.369,6.576l-11.109,0.195l-1.599-6.523c-2.328-0.574-4.596-1.457-6.74-2.652
					l-5.615,3.681l-7.994-7.718l3.48-5.74c-1.27-2.101-2.232-4.337-2.887-6.644l-6.575-1.368l-0.195-11.109l6.523-1.6
					c0.574-2.328,1.458-4.596,2.652-6.74l-3.68-5.615l7.717-7.993L268.141,117.225L268.141,117.225z M274.064,132.025
					c-4.573,4.736-4.44,12.282,0.296,16.854c4.736,4.572,12.282,4.439,16.854-0.296c4.572-4.736,4.44-12.282-0.296-16.854
					C286.182,127.156,278.636,127.289,274.064,132.025z"/>
			</g>
		</g>
	</g>
	<g>
		<g>
			<g>
				<path style="fill:#EBEBEB;" d="M116.844,44.995c0.879-0.532,1.816-0.934,2.781-1.209l0.573-2.753l4.651-0.082l0.669,2.731
					c0.975,0.24,1.925,0.61,2.822,1.11l2.351-1.541l3.347,3.231l-1.457,2.403c0.532,0.88,0.935,1.816,1.209,2.782l2.753,0.573
					l0.082,4.651l-2.731,0.67c-0.24,0.974-0.61,1.924-1.11,2.822l1.541,2.351l-3.231,3.347l-2.403-1.457
					c-0.88,0.532-1.816,0.934-2.782,1.209l-0.573,2.753l-4.651,0.082l-0.669-2.731c-0.975-0.24-1.924-0.61-2.822-1.11l-2.351,1.541
					l-3.347-3.231l1.457-2.403c-0.532-0.88-0.935-1.816-1.209-2.782l-2.753-0.573l-0.082-4.651l2.731-0.67
					c0.24-0.974,0.61-1.924,1.11-2.822l-1.541-2.351l3.231-3.347L116.844,44.995L116.844,44.995z M119.324,51.192
					c-1.915,1.983-1.859,5.142,0.124,7.057c1.983,1.914,5.142,1.859,7.056-0.124c1.914-1.983,1.859-5.142-0.124-7.056
					C124.397,49.153,121.238,49.209,119.324,51.192z"/>
			</g>
		</g>
	</g>
	<g>
		<g>
			<g>
				<path style="fill-rule:evenodd;clip-rule:evenodd;fill:#E0E0E0;" d="M608.717,78.196c0,0.961-0.779,1.74-1.74,1.74
					c-0.961,0-1.74-0.779-1.74-1.74s0.779-1.74,1.74-1.74C607.938,76.456,608.717,77.235,608.717,78.196z"/>
			</g>
			<g>
				<path style="fill-rule:evenodd;clip-rule:evenodd;fill:#E0E0E0;" d="M653.734,49.395c0,0.961-0.779,1.74-1.74,1.74
					c-0.961,0-1.74-0.779-1.74-1.74c0-0.961,0.779-1.74,1.74-1.74C652.956,47.655,653.734,48.434,653.734,49.395z"/>
			</g>
			<g>
				<g>
					<path style="fill:#E0E0E0;" d="M600.072,400.96c0,0-0.017-0.476-0.026-1.406c-0.006-0.938-0.014-2.32-0.025-4.13
						c-0.011-3.641-0.027-8.998-0.047-15.906c-0.019-13.836-0.047-33.873-0.081-58.719c-0.021-49.709-0.049-118.649-0.081-195.617
						l0-0.062l0.028-0.055c2.255-4.476,4.676-9.283,7.113-14.12l-0.028,0.117c0-0.309,0-0.644,0-0.98
						c0-10.828,0.001-21.518,0.001-31.885l0.259,0.259c-100.53-0.062-185.555-0.115-228.269-0.141l0.117-0.117
						c-0.025,10.563-0.043,18.671-0.056,24.148c-0.013,2.729-0.023,4.8-0.03,6.198c-0.01,1.39-0.031,2.097-0.031,2.097
						s-0.021-0.707-0.031-2.097c-0.007-1.399-0.017-3.47-0.03-6.198c-0.013-5.477-0.032-13.585-0.056-24.148l0-0.118l0.118,0
						c42.714-0.026,127.738-0.079,228.269-0.141l0.259,0v0.259c0,10.368,0.001,21.058,0.002,31.885c0,0.336,0,0.671,0,0.98v0.062
						l-0.028,0.055c-2.437,4.837-4.859,9.644-7.114,14.12l0.028-0.117c-0.032,76.968-0.06,145.908-0.081,195.617
						c-0.034,24.846-0.062,44.883-0.081,58.719c-0.021,6.908-0.037,12.266-0.047,15.906c-0.011,1.81-0.019,3.192-0.025,4.13
						C600.089,400.484,600.072,400.96,600.072,400.96z"/>
				</g>
			</g>
			<g>
				<g>
					<path style="fill:#E0E0E0;" d="M644.903,203.258c0,0-0.028-0.507-0.052-1.495c-0.021-0.999-0.052-2.464-0.093-4.378
						c-0.068-3.854-0.168-9.506-0.297-16.75c-0.231-14.513-0.562-35.394-0.967-60.915l-0.001-0.038l0.014-0.037
						c2.542-6.765,5.218-13.885,8.01-21.317l-0.014,0.078c-0.008-14.925-0.017-31.456-0.026-48.923l0.249,0.249
						c-19.947,0.003-41.59,0.007-64.019,0.011c-38.471-0.012-74.625-0.023-105.957-0.032l-0.145,0l-0.062-0.13
						c-2.16-4.568-4.255-9-6.294-13.311l0.196,0.124c-29.724-0.038-54.371-0.07-71.6-0.092c-8.602-0.026-15.349-0.046-19.959-0.06
						c-2.292-0.014-4.049-0.025-5.247-0.032c-1.186-0.011-1.798-0.034-1.798-0.034s0.612-0.022,1.798-0.034
						c1.198-0.007,2.955-0.018,5.247-0.032c4.61-0.014,11.357-0.034,19.959-0.059c17.229-0.022,41.876-0.054,71.6-0.092l0.137,0
						l0.059,0.125c2.045,4.308,4.146,8.737,6.313,13.302l-0.206-0.13c31.332-0.009,67.486-0.021,105.957-0.032
						c22.429,0.004,44.072,0.008,64.019,0.011h0.249l0,0.249c-0.009,17.467-0.018,33.998-0.026,48.923l0,0.041l-0.014,0.038
						c-2.805,7.427-5.492,14.544-8.045,21.304l0.013-0.075c0.331,25.522,0.601,46.403,0.789,60.917
						c0.081,7.245,0.144,12.897,0.186,16.752c0.015,1.914,0.026,3.379,0.034,4.378C644.916,202.75,644.903,203.258,644.903,203.258z
						"/>
				</g>
			</g>
			<g>
				<g>
					<path style="fill:#E0E0E0;" d="M632.43,214.44c0,0-0.032-0.562-0.065-1.657c-0.03-1.104-0.075-2.73-0.133-4.856
						c-0.104-4.274-0.256-10.554-0.452-18.617c-0.367-16.148-0.897-39.43-1.546-68.012l-0.001-0.043l0.017-0.04
						c2.974-6.965,6.122-14.338,9.405-22.026l-0.017,0.079c0.293-12.036,0.611-25.054,0.943-38.694l0.237,0.243
						c-33.479,0.007-71.101,0.015-110.742,0.024c-69.598-0.027-132.957-0.051-179.811-0.069l0.135-0.056
						c-5.194,5.183-10.06,10.039-14.62,14.59l-0.051,0.051l-0.071-0.001c-20.752-0.18-37.279-0.323-48.629-0.422
						c-5.664-0.06-10.035-0.106-13-0.137c-1.471-0.021-2.592-0.036-3.355-0.047c-0.754-0.013-1.138-0.032-1.138-0.032
						s0.385-0.014,1.139-0.016c0.763,0,1.884,0,3.355,0c2.965,0.011,7.335,0.026,13,0.047c11.35,0.062,27.878,0.152,48.63,0.266
						l-0.122,0.05c4.551-4.56,9.407-9.426,14.59-14.62l0.056-0.056h0.08c46.854-0.018,110.213-0.042,179.811-0.069
						c39.641,0.008,77.263,0.016,110.742,0.024h0.243l-0.006,0.243c-0.348,13.639-0.679,26.657-0.986,38.693l-0.001,0.042
						l-0.016,0.038c-3.294,7.683-6.453,15.051-9.438,22.012l0.016-0.082c0.577,28.583,1.046,51.867,1.372,68.016
						c0.15,8.064,0.267,14.345,0.346,18.62c0.033,2.127,0.059,3.753,0.076,4.857C632.437,213.878,632.43,214.44,632.43,214.44z"/>
				</g>
			</g>
		</g>
		<g>
			<path style="fill-rule:evenodd;clip-rule:evenodd;fill:#E0E0E0;" d="M272.514,74.548c0,0.961-0.779,1.74-1.74,1.74
				c-0.961,0-1.74-0.779-1.74-1.74c0-0.961,0.779-1.74,1.74-1.74C271.736,72.809,272.514,73.588,272.514,74.548z"/>
		</g>
		<g>
			<path style="fill-rule:evenodd;clip-rule:evenodd;fill:#E0E0E0;" d="M376.842,36.177c0,0.961-0.779,1.74-1.74,1.74
				c-0.961,0-1.74-0.779-1.74-1.74s0.779-1.74,1.74-1.74C376.063,34.437,376.842,35.216,376.842,36.177z"/>
		</g>
	</g>
	<g>
		<g>
			<path style="fill:#EBEBEB;" d="M665.638,397.699h-36.351c10.645-36.183,13.066-104.047,11.28-148.934h13.371
				C653.238,293.539,656.471,361.012,665.638,397.699z"/>
		</g>
		<g>
			<path style="fill:#EBEBEB;" d="M715.612,441.695c-6.35-7.008-15.841-10.59-24.889-9.395c0.866-8.019,1.667-16.513-1.488-23.845
				c-3.154-7.331-11.833-12.563-18.438-8.676c2.444-11.09-1.836-23.539-10.412-30.281c-8.576-6.741-20.946-7.381-30.088-1.556
				c-9.142,5.825-14.522,17.775-13.086,29.066c-9.152-0.783-18.547,3.875-23.912,11.856c-5.365,7.981-6.512,19.003-2.919,28.053
				c-13.611-0.726-26.587,17.078-26.318,31.675l159.368-0.196C724.812,458.743,721.962,448.703,715.612,441.695z"/>
		</g>
		<g>
			<g>
				<g>
					<path style="fill:#EBEBEB;" d="M635.385,182.104l30.683,10.574c6.773,6.955,2.226,16.761-3.498,20.536
						c4.135,1.999,6.708,6.819,6.067,11.367c-0.641,4.548-4.445,8.47-8.972,9.248c3.063,4.556,1.261,11.609-3.612,14.137
						c-4.873,2.528-11.677-0.06-13.638-5.188c-1.294-3.384-0.682-7.384-2.508-10.514c-1.713-2.935-5.107-4.346-7.872-6.321
						c-6.867-4.906-10.059-14.001-8.986-22.373C624.121,195.2,629.005,187.628,635.385,182.104z"/>
				</g>
			</g>
			<g>
				<g>
					<g>
						<g>
							<path style="fill:#E0E0E0;" d="M654.87,189.048c1.182,3.017,1.741,6.272,1.664,9.511c-0.05,2.117-2.794,2.927-4.009,1.193
								l-0.032-0.046c0.13,3.972-0.001,7.953-0.391,11.908c-0.249,2.526-3.507,3.372-4.941,1.278
								c-5.62-8.208-8.214-18.495-6.959-28.377L654.87,189.048z"/>
						</g>
					</g>
					<g>
						<g>
							<g>
								<g>
									<path style="fill:#E0E0E0;" d="M624.439,152.057c-0.025,0.019-0.081,0.063-0.167,0.132
										c-9.661,7.759-15.26,19.499-15.255,31.89l0.003,7.772l15.431-10.73L624.439,152.057z"/>
								</g>
							</g>
						</g>
						<g>
							<g>
								<g>
									<path style="fill:#E0E0E0;" d="M668.522,152.038c0.025,0.018,0.08,0.063,0.164,0.13
										c9.536,7.645,15.07,19.219,15.075,31.442l0.004,7.666l-15.23-10.571L668.522,152.038z"/>
								</g>
							</g>
						</g>
						<g>
							<g>
								<g>
									<path style="fill:#F5F5F5;" d="M646.447,75.945c3.489-0.002,9.909,9.016,15.875,24.082
										c5.875,14.834,6.189,27.793,6.189,27.793l0.029,64.857l-17.089,0.008l-9.905,0.004l-17.089,0.008l-0.026-58.854
										c-0.003-5.751,0.519-11.492,1.609-17.139c0.938-4.855,2.379-10.775,4.552-16.663
										C636.184,84.9,642.957,75.946,646.447,75.945"/>
								</g>
							</g>
						</g>
					</g>
					<g>
						<g>
							<g>
								<line style="fill:#F5F5F5;" x1="668.538" y1="182.399" x2="624.898" y2="182.163"/>
							</g>
						</g>
						<g>
							<g>
								<g>
									<path style="fill:#E0E0E0;" d="M624.898,182.163c0,0.064,9.769,0.168,21.818,0.233c12.053,0.065,21.821,0.066,21.821,0.002
										c0-0.064-9.767-0.168-21.82-0.234C634.668,182.101,624.898,182.1,624.898,182.163z"/>
								</g>
							</g>
						</g>
					</g>
					<g>
						<g>
							<g>
								<line style="fill:#F5F5F5;" x1="668.733" y1="184.365" x2="625.094" y2="184.13"/>
							</g>
						</g>
						<g>
							<g>
								<g>
									<path style="fill:#E0E0E0;" d="M625.094,184.13c0,0.064,9.769,0.168,21.818,0.233c12.053,0.065,21.821,0.066,21.821,0.002
										c0-0.064-9.767-0.168-21.82-0.234C634.865,184.067,625.094,184.066,625.094,184.13z"/>
								</g>
							</g>
						</g>
					</g>
					<g>
						<g>
							<g>
								<line style="fill:#F5F5F5;" x1="668.7" y1="186.44" x2="625.06" y2="186.204"/>
							</g>
						</g>
						<g>
							<g>
								<g>
									<path style="fill:#E0E0E0;" d="M625.06,186.204c0,0.064,9.769,0.168,21.818,0.233c12.053,0.065,21.821,0.066,21.821,0.002
										c0-0.064-9.767-0.168-21.82-0.234C634.831,186.141,625.061,186.14,625.06,186.204z"/>
								</g>
							</g>
						</g>
					</g>
					<g>
						<g>
							<g>
								<line style="fill:#F5F5F5;" x1="668.666" y1="188.514" x2="625.027" y2="188.278"/>
							</g>
						</g>
						<g>
							<g>
								<g>
									<path style="fill:#E0E0E0;" d="M625.027,188.278c0,0.064,9.769,0.168,21.818,0.233c12.053,0.065,21.821,0.066,21.821,0.002
										c0-0.064-9.767-0.168-21.82-0.233C634.797,188.215,625.027,188.214,625.027,188.278z"/>
								</g>
							</g>
						</g>
					</g>
					<g>
						<g>
							<g>
								<line style="fill:#F5F5F5;" x1="668.633" y1="190.588" x2="624.993" y2="190.353"/>
							</g>
						</g>
						<g>
							<g>
								<g>
									<path style="fill:#E0E0E0;" d="M624.993,190.353c0,0.064,9.769,0.168,21.818,0.233c12.053,0.065,21.821,0.066,21.821,0.002
										c0-0.064-9.767-0.168-21.82-0.233C634.764,190.29,624.993,190.289,624.993,190.353z"/>
								</g>
							</g>
						</g>
					</g>
					<g>
						<g>
							<g>
								<path style="fill:#E0E0E0;" d="M646.394,152.096c-0.008-0.003-0.024,0.1-0.048,0.302c-0.032,0.204-0.032,0.498-0.052,0.88
									c-0.029,0.763-0.047,1.868-0.057,3.232c-0.02,2.729-0.004,6.499,0.038,10.662c0.042,4.165,0.104,7.934,0.161,10.662
									c0.034,1.344,0.061,2.441,0.081,3.231c0.014,0.362,0.026,0.654,0.034,0.878c0.01,0.201,0.02,0.306,0.028,0.306
									c0.008,0,0.014-0.106,0.019-0.307c0.002-0.224,0.005-0.516,0.009-0.879c-0.002-0.79-0.004-1.887-0.008-3.231
									c-0.024-2.752-0.057-6.51-0.093-10.662c-0.041-4.151-0.078-7.908-0.106-10.66c-0.007-1.344-0.012-2.44-0.016-3.23
									c0.006-0.38-0.008-0.68,0.008-0.876C646.401,152.206,646.402,152.098,646.394,152.096z"/>
							</g>
						</g>
					</g>
					<g>
						<g>
							<g>
								<path style="fill:#E0E0E0;" d="M624.439,152.057c0,0.064,9.785,0.118,21.853,0.122c12.072,0.004,21.855-0.045,21.855-0.109
									c0-0.064-9.783-0.119-21.855-0.122C634.224,151.945,624.439,151.994,624.439,152.057z"/>
							</g>
						</g>
					</g>
					<g>
						<g>
							<g>
								<path style="fill:#E0E0E0;" d="M642.871,173.486c0.008-0.009-0.072-0.101-0.269-0.192c-0.193-0.09-0.519-0.161-0.903-0.066
									c-0.374,0.083-0.831,0.39-0.975,0.918c-0.149,0.502-0.022,1.166,0.475,1.565c0.508,0.385,1.183,0.347,1.634,0.08
									c0.477-0.268,0.664-0.786,0.654-1.169c-0.002-0.395-0.15-0.694-0.284-0.86c-0.136-0.169-0.245-0.224-0.252-0.215
									c-0.013,0.015,0.073,0.093,0.177,0.265c0.103,0.169,0.213,0.451,0.195,0.805c-0.013,0.347-0.188,0.772-0.596,0.988
									c-0.389,0.22-0.974,0.239-1.386-0.077c-0.407-0.323-0.531-0.895-0.412-1.326c0.111-0.447,0.481-0.721,0.814-0.818
									c0.338-0.104,0.638-0.065,0.828-0.007C642.762,173.438,642.859,173.503,642.871,173.486z"/>
							</g>
						</g>
					</g>
					<g>
						<g>
							<g>
								<path style="fill:#E0E0E0;" d="M642.633,160.951c0.008-0.009-0.072-0.101-0.269-0.192c-0.194-0.09-0.519-0.161-0.903-0.066
									c-0.374,0.083-0.831,0.39-0.975,0.918c-0.149,0.503-0.022,1.166,0.475,1.565c0.508,0.385,1.183,0.347,1.634,0.08
									c0.477-0.268,0.664-0.786,0.654-1.169c-0.002-0.395-0.15-0.694-0.284-0.86c-0.136-0.169-0.245-0.224-0.252-0.215
									c-0.013,0.015,0.073,0.093,0.177,0.265c0.103,0.169,0.213,0.451,0.195,0.804c-0.013,0.347-0.188,0.772-0.596,0.988
									c-0.389,0.22-0.974,0.239-1.386-0.077c-0.407-0.322-0.531-0.894-0.412-1.326c0.111-0.447,0.481-0.721,0.814-0.818
									c0.338-0.104,0.638-0.066,0.828-0.007C642.524,160.903,642.621,160.968,642.633,160.951z"/>
							</g>
						</g>
					</g>
					<g>
						<g>
							<path style="fill:#E0E0E0;" d="M645.27,219.175c1.029,0.656,1.38,2.179,0.742,3.219c-0.637,1.04-2.153,1.419-3.205,0.801
								c-1.052-0.618-1.459-2.126-0.86-3.19c0.599-1.063,2.099-1.498,3.173-0.919"/>
						</g>
					</g>
				</g>
				<g>
					<g>
						<path style="fill:#FFFFFF;" d="M636.468,113.421c-3.636,5.476-2.145,12.863,3.331,16.499
							c5.476,3.636,12.863,2.145,16.499-3.331c3.636-5.476,2.145-12.863-3.331-16.499
							C647.491,106.453,640.104,107.945,636.468,113.421z"/>
					</g>
					<g>
						<g>
							<path style="fill:#E0E0E0;" d="M636.468,113.421c0.057,0.045,0.589-0.882,1.985-2.141c1.372-1.232,3.818-2.755,7.176-2.958
								c1.656-0.089,3.515,0.138,5.307,0.925c1.775,0.79,3.539,2.039,4.816,3.829c0.662,0.873,1.191,1.878,1.574,2.957
								c0.399,1.073,0.638,2.235,0.679,3.425c0.138,2.382-0.545,4.869-1.923,6.986c-1.417,2.092-3.444,3.688-5.693,4.485
								c-1.113,0.423-2.276,0.654-3.421,0.703c-1.143,0.066-2.275-0.032-3.336-0.304c-2.146-0.483-3.981-1.624-5.398-2.954
								c-1.421-1.347-2.351-2.972-2.912-4.533c-1.116-3.174-0.66-6.019-0.058-7.761
								C635.884,114.306,636.532,113.456,636.468,113.421c-0.015-0.01-0.163,0.205-0.433,0.627c-0.14,0.208-0.302,0.472-0.453,0.807
								c-0.162,0.329-0.359,0.705-0.506,1.159c-0.67,1.75-1.203,4.659-0.098,7.948c0.555,1.617,1.498,3.31,2.958,4.721
								c1.455,1.393,3.353,2.592,5.584,3.109c1.104,0.289,2.282,0.397,3.474,0.334c1.193-0.046,2.407-0.283,3.57-0.721
								c2.348-0.825,4.473-2.49,5.95-4.675c1.439-2.209,2.149-4.812,1.998-7.296c-0.048-1.241-0.3-2.451-0.721-3.569
								c-0.404-1.123-0.962-2.167-1.656-3.072c-1.342-1.856-3.183-3.139-5.031-3.941c-1.866-0.799-3.793-1.011-5.498-0.895
								c-3.459,0.258-5.934,1.877-7.288,3.174c-0.362,0.312-0.632,0.639-0.872,0.916c-0.249,0.269-0.43,0.521-0.568,0.731
								C636.594,113.191,636.453,113.411,636.468,113.421z"/>
						</g>
					</g>
				</g>
				<g>
					<g>
						<path style="fill:#E0E0E0;" d="M646.447,75.945c3.489-0.002,9.909,9.016,15.875,24.082l-31.729,0.014
							C636.184,84.9,642.957,75.946,646.447,75.945"/>
					</g>
				</g>
				<g>
					<g>
						<g>
							<g>
								<path style="fill:#E0E0E0;" d="M646.447,75.945c0,0-0.206,0.015-0.614,0.069c-0.397,0.1-0.966,0.338-1.634,0.783
									c-1.327,0.906-2.964,2.651-4.727,5.135c-3.497,4.99-7.562,12.963-10.853,23.502c-1.569,5.286-2.989,11.204-3.773,17.702
									c-0.38,3.248-0.604,6.635-0.624,10.134c-0.003,3.491-0.007,7.091-0.01,10.792c-0.002,14.802-0.005,31.205-0.008,48.635
									v0.256l0.256,0c7.075-0.002,14.489-0.005,22.038-0.007c7.551-0.004,14.968-0.009,22.044-0.013l0.256,0l0-0.255
									c-0.018-17.436-0.036-33.842-0.052-48.646c-0.006-3.7-0.011-7.301-0.017-10.792c-0.003-1.745-0.006-3.464-0.009-5.153
									c-0.041-1.707-0.209-3.36-0.397-4.986c-0.784-6.498-2.208-12.421-3.888-17.675c-1.741-5.24-3.715-9.811-5.6-13.733
									c-1.905-3.913-3.75-7.173-5.492-9.676c-1.738-2.501-3.344-4.271-4.655-5.201c-0.346-0.203-0.63-0.418-0.91-0.536
									c-0.286-0.105-0.515-0.226-0.716-0.263C646.652,75.959,646.447,75.945,646.447,75.945s0.206,0.048,0.602,0.116
									c0.196,0.044,0.419,0.171,0.696,0.281c0.273,0.123,0.55,0.343,0.886,0.549c1.277,0.944,2.852,2.721,4.559,5.228
									c1.711,2.509,3.528,5.773,5.405,9.687c1.857,3.922,3.805,8.497,5.517,13.721c1.652,5.242,3.05,11.149,3.812,17.618
									c0.183,1.615,0.346,3.273,0.381,4.945c-0.001,1.69-0.003,3.408-0.004,5.153c-0.002,3.491-0.005,7.091-0.007,10.791
									c-0.002,14.803-0.005,31.208-0.008,48.643l0.255-0.255c-7.076,0.002-14.493,0.004-22.044,0.007
									c-7.549,0.004-14.964,0.009-22.039,0.013l0.255,0.255c-0.018-17.43-0.036-33.833-0.051-48.635
									c-0.005-3.7-0.009-7.299-0.013-10.789c0.012-3.483,0.226-6.855,0.595-10.09c0.761-6.468,2.156-12.377,3.698-17.652
									c3.236-10.515,7.245-18.496,10.68-23.494c1.732-2.49,3.337-4.242,4.631-5.162c0.652-0.452,1.205-0.7,1.592-0.814
									C646.241,75.992,646.447,75.945,646.447,75.945z"/>
							</g>
						</g>
					</g>
				</g>
			</g>
			<g>
				<g>
					<g>
						<path style="fill:#E0E0E0;" d="M639.879,126.082c0.048,0.049,0.747-0.548,1.798-1.592c1.053-1.042,2.452-2.536,3.961-4.212
							c1.434-1.607,2.731-3.062,3.843-4.308c0.98-1.104,1.585-1.791,1.533-1.844c-0.048-0.049-0.747,0.548-1.798,1.592
							c-1.054,1.042-2.452,2.536-3.961,4.213c-1.433,1.607-2.731,3.061-3.843,4.307
							C640.432,125.342,639.827,126.029,639.879,126.082z"/>
					</g>
				</g>
				<g>
					<g>
						<path style="fill:#E0E0E0;" d="M643.38,126.095c0.099,0.103,1.812-1.508,3.825-3.596c2.014-2.089,3.56-3.86,3.453-3.956
							c-0.106-0.095-1.819,1.514-3.826,3.597C644.827,124.222,643.281,125.993,643.38,126.095z"/>
					</g>
				</g>
			</g>
		</g>
	</g>
</g>
<g id="Background_Simple" style="display:none;">
	<g style="display:inline;">
		<path style="fill:#F5F5F5;" d="M569.245,30.305l-1.995,1.211c-16.817,10.205-26.955,28.656-25.724,48.11
			c0.158,2.501,0.497,4.991,1.022,7.447c3.786,17.687,17.161,33.077,34.291,39.456c10.074,3.752,21.674,4.8,29.67,11.919
			c10.407,9.266,10.734,24.996,10.303,38.827c-0.431,13.83-0.064,29.571,10.385,38.792c6.543,5.775,15.849,7.61,24.612,7.144
			c23.201-1.233,43.945-17.399,54.256-37.959c10.311-20.56,11.235-44.766,6.699-67.268c-6.354-31.522-23.804-61.499-50.757-79.517
			C635.054,20.449,598.335,15.889,569.245,30.305z"/>
	</g>
	<g style="display:inline;">
		<path style="fill:#F5F5F5;" d="M140.45,48.285l1.359,0.825c11.457,6.953,18.364,19.523,17.526,32.776
			c-0.108,1.704-0.338,3.4-0.697,5.074c-2.579,12.05-11.692,22.535-23.362,26.881c-6.863,2.556-14.766,3.27-20.214,8.12
			c-7.09,6.313-7.313,17.029-7.019,26.452c0.294,9.422,0.043,20.146-7.075,26.428c-4.458,3.934-10.797,5.184-16.767,4.867
			c-15.806-0.84-29.939-11.854-36.964-25.861c-7.025-14.007-7.654-30.498-4.564-45.828c4.329-21.475,16.217-41.898,34.579-54.173
			C95.616,41.57,120.632,38.463,140.45,48.285z"/>
	</g>
	<g style="display:inline;">
		
			<ellipse transform="matrix(0.2337 -0.9723 0.9723 0.2337 146.041 348.2393)" style="fill:#F5F5F5;" cx="293.96" cy="81.464" rx="39.939" ry="39.939"/>
	</g>
	<g style="display:inline;">
		
			<ellipse transform="matrix(0.1584 -0.9874 0.9874 0.1584 143.978 997.1638)" style="fill:#F5F5F5;" cx="656.949" cy="414.121" rx="35.52" ry="35.52"/>
	</g>
</g>
<g id="Floor">
	<g>
		<g>
			<path style="fill:#263238;" d="M711.52,468.805c0,0.144-152.468,0.26-340.504,0.26c-188.101,0-340.537-0.117-340.537-0.26
				s152.436-0.26,340.537-0.26C559.052,468.544,711.52,468.661,711.52,468.805z"/>
		</g>
	</g>
</g>
<g id="OK">
	<g>
		<g>
			<g>
				<path style="fill:#263238;" d="M672.681,293.696h-36.589c-5.451,0-9.87-4.419-9.87-9.87v-36.589c0-5.451,4.419-9.87,9.87-9.87
					h36.589c5.451,0,9.87,4.419,9.87,9.87v36.589C682.551,289.277,678.132,293.696,672.681,293.696z"/>
			</g>
		</g>
		<g>
			<g>
				<path style="fill:#455A64;" d="M664.418,293.696h-36.589c-5.451,0-9.87-4.419-9.87-9.87v-36.589c0-5.451,4.419-9.87,9.87-9.87
					h36.589c5.451,0,9.87,4.419,9.87,9.87v36.589C674.288,289.277,669.869,293.696,664.418,293.696z"/>
			</g>
		</g>
		<g>
			<g>
				<g>
					<g>
						<g>
							<g>
								<polygon style="fill:#FFFFFF;" points="628.892,265.199 634.25,259.841 644.584,269.026 661.841,251.704 666.816,257.062 
									643.819,279.36 								"/>
							</g>
						</g>
					</g>
				</g>
			</g>
		</g>
	</g>
</g>
<g id="Plant">
	<g>
		<g>
			<g>
				<g>
					<path style="fill:#FF725E;" d="M646.56,407.795c2.768,1.201,4.804,3.76,5.826,6.599c1.022,2.839,1.114,5.941,0.774,8.939
						c-0.657,5.801-3.954,11.657-7.503,16.293c-4.885-4.263-6.009-11.701-6.342-15.509
						C638.788,418.097,641.492,406.897,646.56,407.795"/>
				</g>
			</g>
		</g>
		<g>
			<g>
				<g>
					<path style="fill:#FF725E;" d="M651.335,449.201c-0.782-3.279,0.582-6.875,3.099-9.118c2.517-2.242,6.033-3.191,9.394-2.934
						c1.554,0.119,3.234,0.572,4.123,1.852c0.832,1.196,0.739,2.866,0.064,4.157c-0.675,1.291-1.843,2.257-3.077,3.031
						C660.705,448.844,656.121,450.637,651.335,449.201"/>
				</g>
			</g>
		</g>
		<g>
			<g>
				<g>
					<g>
						<path style="fill:#263238;" d="M645.07,466.988c-0.029-0.007,0.038-0.43,0.174-1.191c0.154-0.838,0.352-1.921,0.591-3.221
							c0.54-2.692,1.233-6.548,3.325-10.292c2.064-3.734,4.953-6.484,7.386-7.849c1.208-0.699,2.265-1.115,3.012-1.332
							c0.369-0.124,0.669-0.171,0.867-0.22c0.2-0.042,0.306-0.057,0.31-0.043c0.034,0.095-1.692,0.405-4.035,1.852
							c-2.349,1.405-5.14,4.127-7.17,7.798c-2.051,3.666-2.788,7.469-3.401,10.146c-0.296,1.35-0.536,2.444-0.723,3.195
							C645.219,466.583,645.097,466.994,645.07,466.988z"/>
					</g>
				</g>
			</g>
		</g>
		<g>
			<g>
				<g>
					<g>
						<path style="fill:#263238;" d="M645.254,416.505c0.015,0,0.035,0.179,0.06,0.52c0.023,0.386,0.052,0.882,0.089,1.495
							c0.069,1.299,0.146,3.179,0.221,5.503c0.151,4.648,0.268,11.073,0.239,18.17c-0.032,7.099-0.205,13.523-0.396,18.17
							c-0.095,2.324-0.187,4.203-0.268,5.501c-0.042,0.613-0.075,1.108-0.102,1.494c-0.028,0.341-0.05,0.52-0.064,0.52
							c-0.014-0.001-0.021-0.181-0.021-0.523c0.006-0.387,0.013-0.883,0.022-1.497c0.033-1.353,0.078-3.22,0.134-5.504
							c0.114-4.647,0.24-11.068,0.272-18.162c0.029-7.091-0.041-13.513-0.115-18.161c-0.036-2.285-0.065-4.152-0.086-5.505
							c-0.004-0.614-0.007-1.111-0.009-1.498C645.231,416.686,645.24,416.506,645.254,416.505z"/>
					</g>
				</g>
			</g>
		</g>
		<g>
			<g>
				<g>
					<path style="fill:#FF725E;" d="M642.883,452.732c-1.112-7.019-5.842-13.365-12.251-16.435
						c-1.632-0.782-3.764-1.293-5.106-0.079c-1.344,1.216-1.043,3.399-0.385,5.088c2.736,7.029,10.085,11.991,17.627,11.902"/>
				</g>
			</g>
		</g>
		<g>
			<g>
				<g>
					<g>
						<path style="fill:#263238;" d="M631.423,441.8c0.013-0.026,0.38,0.135,1.037,0.452c0.329,0.156,0.732,0.349,1.171,0.624
							c0.439,0.274,0.969,0.542,1.491,0.935c0.533,0.377,1.128,0.777,1.706,1.284c0.607,0.473,1.198,1.044,1.816,1.65
							c1.203,1.24,2.415,2.721,3.45,4.433c1.019,1.722,1.757,3.488,2.273,5.139c0.232,0.834,0.456,1.625,0.574,2.387
							c0.165,0.752,0.227,1.466,0.293,2.116c0.09,0.648,0.06,1.242,0.081,1.759c0.024,0.518-0.01,0.964-0.039,1.327
							c-0.053,0.727-0.096,1.126-0.126,1.124c-0.096-0.004,0.071-1.614-0.214-4.179c-0.084-0.639-0.162-1.341-0.34-2.079
							c-0.131-0.747-0.364-1.522-0.602-2.339c-0.528-1.617-1.263-3.345-2.263-5.037c-1.017-1.681-2.198-3.142-3.366-4.378
							c-0.601-0.603-1.173-1.176-1.762-1.653c-0.56-0.512-1.137-0.92-1.653-1.308C632.851,442.552,631.38,441.882,631.423,441.8z"/>
					</g>
				</g>
			</g>
		</g>
	</g>
</g>
<g id="Server">
	<g>
		<g>
			<rect x="96.155" y="218.169" style="fill-rule:evenodd;clip-rule:evenodd;fill:#E0E0E0;" width="104.545" height="250.698"/>
		</g>
		<g>
			<rect x="65.781" y="218.169" style="fill-rule:evenodd;clip-rule:evenodd;fill:#F5F5F5;" width="82.647" height="250.698"/>
		</g>
		<g>
			<g>
				<path style="fill:#263238;" d="M148.553,468.683c-0.144,0-0.26-56.146-0.26-125.389c0-69.267,0.117-125.401,0.26-125.401
					s0.26,56.134,0.26,125.401C148.813,412.537,148.696,468.683,148.553,468.683z"/>
			</g>
		</g>
		<g>
			<rect x="163.506" y="246.968" style="fill-rule:evenodd;clip-rule:evenodd;fill:#263238;" width="25.038" height="2.578"/>
		</g>
		<g>
			<rect x="163.506" y="254.353" style="fill-rule:evenodd;clip-rule:evenodd;fill:#263238;" width="25.038" height="2.578"/>
		</g>
		<g>
			<rect x="163.506" y="261.738" style="fill-rule:evenodd;clip-rule:evenodd;fill:#263238;" width="25.038" height="2.579"/>
		</g>
		<g>
			<rect x="74.322" y="228.832" style="fill-rule:evenodd;clip-rule:evenodd;fill:#E0E0E0;" width="66.121" height="232.076"/>
		</g>
		<g>
			<g>
				<rect x="79.072" y="237.376" style="fill-rule:evenodd;clip-rule:evenodd;fill:#EBEBEB;" width="54.777" height="8.296"/>
			</g>
			<g>
				<rect x="79.072" y="237.376" style="fill-rule:evenodd;clip-rule:evenodd;fill:#FF725E;" width="8.296" height="8.296"/>
			</g>
			<g>
				<rect x="117.513" y="237.376" style="fill-rule:evenodd;clip-rule:evenodd;fill:#F5F5F5;" width="18.036" height="8.296"/>
			</g>
		</g>
		<g>
			<g>
				<rect x="79.072" y="252.153" style="fill-rule:evenodd;clip-rule:evenodd;fill:#EBEBEB;" width="54.777" height="8.296"/>
			</g>
			<g>
				<rect x="79.072" y="252.153" style="fill-rule:evenodd;clip-rule:evenodd;fill:#FFFFFF;" width="8.296" height="8.296"/>
			</g>
			<g>
				<rect x="117.513" y="252.153" style="fill-rule:evenodd;clip-rule:evenodd;fill:#F5F5F5;" width="18.036" height="8.296"/>
			</g>
		</g>
		<g>
			<g>
				<rect x="79.072" y="266.93" style="fill-rule:evenodd;clip-rule:evenodd;fill:#EBEBEB;" width="54.777" height="8.296"/>
			</g>
			<g>
				<rect x="79.072" y="266.93" style="fill-rule:evenodd;clip-rule:evenodd;fill:#FF725E;" width="8.296" height="8.296"/>
			</g>
			<g>
				<rect x="117.513" y="266.93" style="fill-rule:evenodd;clip-rule:evenodd;fill:#F5F5F5;" width="18.036" height="8.296"/>
			</g>
		</g>
		<g>
			<g>
				<rect x="79.072" y="281.707" style="fill-rule:evenodd;clip-rule:evenodd;fill:#EBEBEB;" width="54.777" height="8.296"/>
			</g>
			<g>
				<rect x="79.072" y="281.707" style="fill-rule:evenodd;clip-rule:evenodd;fill:#FFFFFF;" width="8.296" height="8.296"/>
			</g>
			<g>
				<rect x="117.513" y="281.707" style="fill-rule:evenodd;clip-rule:evenodd;fill:#F5F5F5;" width="18.036" height="8.296"/>
			</g>
		</g>
		<g>
			<g>
				<rect x="79.072" y="296.484" style="fill-rule:evenodd;clip-rule:evenodd;fill:#EBEBEB;" width="54.777" height="8.296"/>
			</g>
			<g>
				<rect x="79.072" y="296.484" style="fill-rule:evenodd;clip-rule:evenodd;fill:#FF725E;" width="8.296" height="8.296"/>
			</g>
			<g>
				<rect x="117.513" y="296.484" style="fill-rule:evenodd;clip-rule:evenodd;fill:#F5F5F5;" width="18.036" height="8.296"/>
			</g>
		</g>
		<g>
			<g>
				<rect x="79.072" y="311.261" style="fill-rule:evenodd;clip-rule:evenodd;fill:#EBEBEB;" width="54.777" height="8.296"/>
			</g>
			<g>
				<rect x="79.072" y="311.261" style="fill-rule:evenodd;clip-rule:evenodd;fill:#FF725E;" width="8.296" height="8.296"/>
			</g>
			<g>
				<rect x="117.513" y="311.261" style="fill-rule:evenodd;clip-rule:evenodd;fill:#F5F5F5;" width="18.036" height="8.296"/>
			</g>
		</g>
		<g>
			<g>
				<rect x="79.072" y="326.038" style="fill-rule:evenodd;clip-rule:evenodd;fill:#EBEBEB;" width="54.777" height="8.296"/>
			</g>
			<g>
				<rect x="79.072" y="326.038" style="fill-rule:evenodd;clip-rule:evenodd;fill:#FFFFFF;" width="8.296" height="8.296"/>
			</g>
			<g>
				<rect x="117.513" y="326.038" style="fill-rule:evenodd;clip-rule:evenodd;fill:#F5F5F5;" width="18.036" height="8.296"/>
			</g>
		</g>
		<g>
			<g>
				<rect x="79.072" y="340.814" style="fill-rule:evenodd;clip-rule:evenodd;fill:#EBEBEB;" width="54.777" height="8.296"/>
			</g>
			<g>
				<rect x="79.072" y="340.814" style="fill-rule:evenodd;clip-rule:evenodd;fill:#FFFFFF;" width="8.296" height="8.296"/>
			</g>
			<g>
				<rect x="117.513" y="340.814" style="fill-rule:evenodd;clip-rule:evenodd;fill:#F5F5F5;" width="18.036" height="8.296"/>
			</g>
		</g>
		<g>
			<g>
				<rect x="79.072" y="355.591" style="fill-rule:evenodd;clip-rule:evenodd;fill:#EBEBEB;" width="54.777" height="8.296"/>
			</g>
			<g>
				<rect x="79.072" y="355.591" style="fill-rule:evenodd;clip-rule:evenodd;fill:#FFFFFF;" width="8.296" height="8.296"/>
			</g>
			<g>
				<rect x="117.513" y="355.591" style="fill-rule:evenodd;clip-rule:evenodd;fill:#F5F5F5;" width="18.036" height="8.296"/>
			</g>
		</g>
		<g>
			<g>
				<rect x="79.072" y="370.368" style="fill-rule:evenodd;clip-rule:evenodd;fill:#EBEBEB;" width="54.777" height="8.296"/>
			</g>
			<g>
				<rect x="79.072" y="370.368" style="fill-rule:evenodd;clip-rule:evenodd;fill:#FF725E;" width="8.296" height="8.296"/>
			</g>
			<g>
				<rect x="117.513" y="370.368" style="fill-rule:evenodd;clip-rule:evenodd;fill:#F5F5F5;" width="18.036" height="8.296"/>
			</g>
		</g>
		<g>
			<g>
				<rect x="79.072" y="385.145" style="fill-rule:evenodd;clip-rule:evenodd;fill:#EBEBEB;" width="54.777" height="8.296"/>
			</g>
			<g>
				<rect x="79.072" y="385.145" style="fill-rule:evenodd;clip-rule:evenodd;fill:#FFFFFF;" width="8.296" height="8.296"/>
			</g>
			<g>
				<rect x="117.513" y="385.145" style="fill-rule:evenodd;clip-rule:evenodd;fill:#F5F5F5;" width="18.036" height="8.296"/>
			</g>
		</g>
		<g>
			<g>
				<rect x="79.072" y="399.922" style="fill-rule:evenodd;clip-rule:evenodd;fill:#EBEBEB;" width="54.777" height="8.296"/>
			</g>
			<g>
				<rect x="79.072" y="399.922" style="fill-rule:evenodd;clip-rule:evenodd;fill:#FF725E;" width="8.296" height="8.296"/>
			</g>
			<g>
				<rect x="117.513" y="399.922" style="fill-rule:evenodd;clip-rule:evenodd;fill:#F5F5F5;" width="18.036" height="8.296"/>
			</g>
		</g>
		<g>
			<g>
				<rect x="79.072" y="414.699" style="fill-rule:evenodd;clip-rule:evenodd;fill:#EBEBEB;" width="54.777" height="8.296"/>
			</g>
			<g>
				<rect x="79.072" y="414.699" style="fill-rule:evenodd;clip-rule:evenodd;fill:#FFFFFF;" width="8.296" height="8.296"/>
			</g>
			<g>
				<rect x="117.513" y="414.699" style="fill-rule:evenodd;clip-rule:evenodd;fill:#F5F5F5;" width="18.036" height="8.296"/>
			</g>
		</g>
		<g>
			<g>
				<rect x="79.072" y="429.476" style="fill-rule:evenodd;clip-rule:evenodd;fill:#EBEBEB;" width="54.777" height="8.296"/>
			</g>
			<g>
				<rect x="79.072" y="429.476" style="fill-rule:evenodd;clip-rule:evenodd;fill:#FF725E;" width="8.296" height="8.296"/>
			</g>
			<g>
				<rect x="117.513" y="429.476" style="fill-rule:evenodd;clip-rule:evenodd;fill:#F5F5F5;" width="18.036" height="8.296"/>
			</g>
		</g>
		<g>
			<g>
				<rect x="79.072" y="444.253" style="fill-rule:evenodd;clip-rule:evenodd;fill:#EBEBEB;" width="54.777" height="8.296"/>
			</g>
			<g>
				<rect x="79.072" y="444.253" style="fill-rule:evenodd;clip-rule:evenodd;fill:#FFFFFF;" width="8.296" height="8.296"/>
			</g>
			<g>
				<rect x="117.513" y="444.253" style="fill-rule:evenodd;clip-rule:evenodd;fill:#F5F5F5;" width="18.036" height="8.296"/>
			</g>
		</g>
		<g>
			<g>
				<path style="fill:#263238;" d="M200.7,468.867c-0.002-2.232-0.101-104.101-0.244-250.698l0.244,0.244
					c-41.616,0.005-87.25,0.011-134.901,0.016h-0.018l0.26-0.26c-0.024,96.243-0.046,184.238-0.063,250.698l-0.197-0.197
					C148.759,468.792,199.125,468.865,200.7,468.867c-1.574,0.002-51.941,0.076-134.919,0.197l-0.197,0v-0.198
					c-0.017-66.461-0.039-154.456-0.063-250.698l0-0.26h0.261h0.018c47.651,0.006,93.285,0.011,134.901,0.016h0.244l0,0.244
					c-0.048,73.364-0.089,136.064-0.118,180.43C200.747,442.813,200.702,467.755,200.7,468.867z"/>
			</g>
		</g>
	</g>
</g>
<g id="Device">
	<g>
		<g>
			<path style="fill:#455A64;" d="M554.922,147.509H195.077c-6.204,0-11.232,5.029-11.232,11.232v254.166
				c0,6.204,5.029,11.233,11.232,11.233h138.108l-6.696,44.404h100.134l-5.591-44.404h133.89c6.203,0,11.232-5.029,11.232-11.232
				V158.742C566.155,152.538,561.126,147.509,554.922,147.509z"/>
		</g>
		<g>
			<g>
				<g>
					<g>
						<path style="fill:#263238;" d="M379.804,397.41c4.895,6.996-2.766,14.657-9.764,9.763c-0.23-0.162-0.44-0.372-0.601-0.603
							c-4.882-6.994,2.77-14.646,9.763-9.762C379.433,396.969,379.643,397.179,379.804,397.41z"/>
					</g>
				</g>
			</g>
		</g>
		<g>
			<path style="fill:#263238;" d="M556.136,377.642H193.909V166.91c0-5.356,4.342-9.697,9.697-9.697h342.832
				c5.356,0,9.697,4.342,9.697,9.697V377.642z"/>
		</g>
		<g>
			<path style="fill:#263238;" d="M458.16,424.144c0,0.123-30.165,0.222-67.368,0.222c-37.215,0-67.374-0.1-67.374-0.222
				s30.159-0.222,67.374-0.222C427.994,423.922,458.16,424.021,458.16,424.144z"/>
		</g>
		<g>
			<g>
				<rect x="230.292" y="174.625" style="fill:#455A64;" width="26.403" height="5.571"/>
			</g>
			<g>
				<rect x="230.292" y="199.578" style="fill:#FF725E;" width="13.201" height="5.571"/>
			</g>
			<g>
				<rect x="240.226" y="212.127" style="fill:#455A64;" width="18.589" height="5.571"/>
			</g>
			<g>
				<rect x="261.772" y="212.127" style="fill:#455A64;" width="10.83" height="5.571"/>
			</g>
			<g>
				<rect x="347.441" y="212.127" style="fill:#455A64;" width="22.275" height="5.571"/>
			</g>
			<g>
				<rect x="397.186" y="224.361" style="fill:#455A64;" width="37.633" height="5.571"/>
			</g>
			<g>
				<rect x="474.8" y="212.127" style="fill:#455A64;" width="18.071" height="5.571"/>
			</g>
			<g>
				<rect x="498.414" y="212.127" style="fill:#455A64;" width="36.335" height="5.571"/>
			</g>
			<g>
				<rect x="240.226" y="224.361" style="fill:#455A64;" width="18.589" height="5.571"/>
			</g>
			<g>
				<rect x="228.805" y="236.563" style="fill:#FF725E;" width="18.589" height="5.571"/>
			</g>
			<g>
				<rect x="238.709" y="248.765" style="fill:#455A64;" width="8.685" height="5.571"/>
			</g>
			<g>
				<rect x="270.591" y="274.471" style="fill:#455A64;" width="8.685" height="5.571"/>
			</g>
			<g>
				<rect x="390.061" y="320.915" style="fill:#455A64;" width="16.968" height="5.571"/>
			</g>
			<g>
				<rect x="460.26" y="320.915" style="fill:#455A64;" width="41.571" height="5.571"/>
			</g>
			<g>
				<rect x="326.173" y="308.724" style="fill:#E0E0E0;" width="16.968" height="5.571"/>
			</g>
			<g>
				<rect x="264.686" y="298.261" style="fill:#455A64;" width="16.968" height="5.571"/>
			</g>
			<g>
				<rect x="359.785" y="320.915" style="fill:#455A64;" width="26.756" height="5.571"/>
			</g>
			<g>
				<rect x="238.709" y="261.195" style="fill:#455A64;" width="14.094" height="5.571"/>
			</g>
			<g>
				<rect x="238.709" y="274.68" style="fill:#455A64;" width="26.144" height="5.571"/>
			</g>
			<g>
				<rect x="238.709" y="285.004" style="fill:#455A64;" width="38.251" height="5.571"/>
			</g>
			<g>
				<rect x="308.01" y="285.004" style="fill:#455A64;" width="38.251" height="5.571"/>
			</g>
			<g>
				<rect x="264.35" y="308.724" style="fill:#455A64;" width="53.707" height="5.571"/>
			</g>
			<g>
				<rect x="264.35" y="320.915" style="fill:#455A64;" width="90.841" height="5.571"/>
			</g>
			<g>
				<rect x="236.867" y="333.105" style="fill:#455A64;" width="90.841" height="5.571"/>
			</g>
			<g>
				<rect x="280.997" y="285.004" style="fill:#455A64;" width="22.948" height="5.571"/>
			</g>
			<g>
				<rect x="250.822" y="248.765" style="fill:#455A64;" width="23.678" height="5.571"/>
			</g>
			<g>
				<rect x="256.038" y="261.197" style="fill:#455A64;" width="23.678" height="5.571"/>
			</g>
			<g>
				<rect x="308.76" y="261.197" style="fill:#455A64;" width="62.696" height="5.571"/>
			</g>
			<g>
				<rect x="373.162" y="261.197" style="fill:#455A64;" width="72.413" height="5.571"/>
			</g>
			<g>
				<rect x="283.61" y="261.197" style="fill:#455A64;" width="19.597" height="5.571"/>
			</g>
			<g>
				<rect x="277.745" y="248.765" style="fill:#455A64;" width="31.04" height="5.571"/>
			</g>
			<g>
				<rect x="312.209" y="248.765" style="fill:#E0E0E0;" width="17.278" height="5.571"/>
			</g>
			<g>
				<rect x="261.772" y="224.361" style="fill:#455A64;" width="19.379" height="5.571"/>
			</g>
			<g>
				<rect x="294.317" y="224.361" style="fill:#455A64;" width="95.688" height="5.571"/>
			</g>
			<g>
				<rect x="452.177" y="261.197" style="fill:#455A64;" width="45.245" height="5.571"/>
			</g>
			<g>
				<rect x="411.436" y="320.915" style="fill:#455A64;" width="45.245" height="5.571"/>
			</g>
			<g>
				<rect x="373.503" y="212.127" style="fill:#455A64;" width="94.26" height="5.571"/>
			</g>
			<g>
				<rect x="275.988" y="212.127" style="fill:#455A64;" width="65.594" height="5.571"/>
			</g>
			<g>
				<rect x="230.292" y="186.436" style="fill:#455A64;" width="44.163" height="5.571"/>
			</g>
			<g>
				<rect x="278.862" y="186.436" style="fill:#455A64;" width="60.472" height="5.571"/>
			</g>
			<g>
				<rect x="260.819" y="174.625" style="fill:#E0E0E0;" width="19.441" height="5.571"/>
			</g>
			<g>
				<rect x="215.251" y="174.625" style="fill:#455A64;" width="5.395" height="5.571"/>
			</g>
			<g>
				<rect x="215.251" y="186.815" style="fill:#455A64;" width="5.395" height="5.571"/>
			</g>
			<g>
				<rect x="215.251" y="199.006" style="fill:#455A64;" width="5.395" height="5.571"/>
			</g>
			<g>
				<rect x="215.251" y="211.197" style="fill:#455A64;" width="5.395" height="5.571"/>
			</g>
			<g>
				<rect x="215.251" y="223.388" style="fill:#455A64;" width="5.395" height="5.571"/>
			</g>
			<g>
				<rect x="215.251" y="235.579" style="fill:#455A64;" width="5.395" height="5.571"/>
			</g>
			<g>
				<rect x="215.251" y="247.77" style="fill:#455A64;" width="5.395" height="5.571"/>
			</g>
			<g>
				<rect x="215.251" y="259.961" style="fill:#455A64;" width="5.395" height="5.571"/>
			</g>
			<g>
				<rect x="215.251" y="272.151" style="fill:#455A64;" width="5.395" height="5.571"/>
			</g>
			<g>
				<rect x="268.46" y="359.44" style="fill:#E0E0E0;" width="8.685" height="5.571"/>
			</g>
			<g>
				<rect x="237.037" y="359.44" style="fill:#FF725E;" width="26.144" height="5.571"/>
			</g>
			<g>
				<rect x="215.251" y="358.822" style="fill:#455A64;" width="5.395" height="5.571"/>
			</g>
			<g>
				<rect x="215.251" y="284.342" style="fill:#455A64;" width="5.395" height="5.571"/>
			</g>
			<g>
				<rect x="215.251" y="296.533" style="fill:#455A64;" width="5.395" height="5.571"/>
			</g>
			<g>
				<rect x="215.251" y="308.724" style="fill:#455A64;" width="5.395" height="5.571"/>
			</g>
			<g>
				<rect x="215.251" y="320.915" style="fill:#455A64;" width="5.395" height="5.571"/>
			</g>
			<g>
				<rect x="215.251" y="333.105" style="fill:#455A64;" width="5.395" height="5.571"/>
			</g>
			<g>
				<rect x="236.867" y="345.934" style="fill:#455A64;" width="26.483" height="5.571"/>
			</g>
			<g>
				<rect x="268.46" y="345.934" style="fill:#455A64;" width="59.906" height="5.571"/>
			</g>
			<g>
				<rect x="215.251" y="345.934" style="fill:#455A64;" width="5.395" height="5.571"/>
			</g>
			<g>
				<rect x="346.713" y="186.4" style="fill:#E0E0E0;" width="19.441" height="5.571"/>
			</g>
		</g>
		<g style="opacity:0.3;">
			<polygon points="389.283,283.946 376,283.946 376,391.835 534.229,391.835 530.107,286.57 			"/>
		</g>
		<g>
			<g>
				<rect x="386.194" y="268.002" style="fill:#E0E0E0;" width="158.327" height="113.637"/>
				<path style="fill:#263238;" d="M545.021,382.139H385.694V267.502h159.327V382.139z M386.694,381.139h157.327V268.502H386.694
					V381.139z"/>
			</g>
			<g>
				<g>
					<rect x="416.25" y="280.142" style="fill:#455A64;" width="25.604" height="5.403"/>
				</g>
				<g>
					<rect x="416.25" y="304.341" style="fill:#FF725E;" width="12.802" height="5.403"/>
				</g>
				<g>
					<rect x="425.884" y="316.511" style="fill:#455A64;" width="18.027" height="5.403"/>
				</g>
				<g>
					<rect x="446.779" y="316.511" style="fill:#455A64;" width="10.503" height="5.403"/>
				</g>
				<g>
					<rect x="425.884" y="328.375" style="fill:#455A64;" width="18.027" height="5.403"/>
				</g>
				<g>
					<rect x="414.808" y="340.208" style="fill:#FF725E;" width="18.027" height="5.403"/>
				</g>
				<g>
					<rect x="424.413" y="352.041" style="fill:#455A64;" width="8.422" height="5.403"/>
				</g>
				<g>
					<rect x="424.413" y="364.095" style="fill:#455A64;" width="13.667" height="5.403"/>
				</g>
				<g>
					<rect x="436.16" y="352.041" style="fill:#455A64;" width="22.962" height="5.403"/>
				</g>
				<g>
					<rect x="441.218" y="364.097" style="fill:#455A64;" width="22.962" height="5.403"/>
				</g>
				<g>
					<rect x="492.346" y="364.097" style="fill:#455A64;" width="27.162" height="5.403"/>
				</g>
				<g>
					<rect x="467.956" y="364.097" style="fill:#455A64;" width="19.005" height="5.403"/>
				</g>
				<g>
					<rect x="462.269" y="352.041" style="fill:#455A64;" width="30.101" height="5.403"/>
				</g>
				<g>
					<rect x="495.691" y="352.041" style="fill:#FFFFFF;" width="16.755" height="5.403"/>
				</g>
				<g>
					<rect x="446.779" y="328.375" style="fill:#455A64;" width="18.793" height="5.403"/>
				</g>
				<g>
					<rect x="460.564" y="316.511" style="fill:#455A64;" width="63.611" height="5.403"/>
				</g>
				<g>
					<rect x="416.25" y="291.596" style="fill:#455A64;" width="42.828" height="5.403"/>
				</g>
				<g>
					<rect x="463.352" y="291.596" style="fill:#455A64;" width="58.644" height="5.403"/>
				</g>
				<g>
					<rect x="445.855" y="280.142" style="fill:#FFFFFF;" width="18.853" height="5.403"/>
				</g>
				<g>
					<rect x="401.664" y="280.142" style="fill:#455A64;" width="5.232" height="5.403"/>
				</g>
				<g>
					<rect x="401.664" y="291.964" style="fill:#455A64;" width="5.232" height="5.403"/>
				</g>
				<g>
					<rect x="401.664" y="303.786" style="fill:#455A64;" width="5.232" height="5.403"/>
				</g>
				<g>
					<rect x="401.664" y="315.609" style="fill:#455A64;" width="5.232" height="5.403"/>
				</g>
				<g>
					<rect x="401.664" y="327.431" style="fill:#455A64;" width="5.232" height="5.403"/>
				</g>
				<g>
					<rect x="401.664" y="339.253" style="fill:#455A64;" width="5.232" height="5.403"/>
				</g>
				<g>
					<rect x="401.664" y="351.076" style="fill:#455A64;" width="5.232" height="5.403"/>
				</g>
				<g>
					<rect x="401.664" y="362.898" style="fill:#455A64;" width="5.232" height="5.403"/>
				</g>
			</g>
		</g>
		<g style="opacity:0.3;">
			<path d="M300.86,423.529c2.006-9.996-4.502-39.91-4.502-39.91l-48.616,6.176l-2.006,33.511L300.86,423.529z"/>
		</g>
		<g>
			<g>
				<path style="fill:#FF725E;" d="M238.964,383.619c0,0,2.132,39.773-6.781,53.447l60.543,1.49c0,0,4.702-23.229,3.632-54.937
					H238.964z"/>
			</g>
			<g>
				<g>
					<path style="fill:#263238;" d="M296.196,391.32c0,0.144-12.603,0.26-28.146,0.26c-15.548,0-28.148-0.117-28.148-0.26
						s12.6-0.26,28.148-0.26C283.593,391.06,296.196,391.176,296.196,391.32z"/>
				</g>
			</g>
			<g>
				<g>
					<path style="fill:#263238;" d="M289.465,404.929c0,0.144-10.073,0.26-22.496,0.26c-12.427,0-22.498-0.117-22.498-0.26
						c0-0.144,10.071-0.26,22.498-0.26C279.392,404.669,289.465,404.785,289.465,404.929z"/>
				</g>
			</g>
			<g>
				<g>
					<path style="fill:#263238;" d="M289.96,412.36c0,0.144-10.073,0.26-22.496,0.26c-12.427,0-22.498-0.117-22.498-0.26
						s10.071-0.26,22.498-0.26C279.887,412.099,289.96,412.216,289.96,412.36z"/>
				</g>
			</g>
			<g>
				<g>
					<path style="fill:#263238;" d="M288.547,419.79c0,0.144-10.073,0.26-22.496,0.26c-12.427,0-22.498-0.117-22.498-0.26
						s10.071-0.26,22.498-0.26C278.473,419.53,288.547,419.646,288.547,419.79z"/>
				</g>
			</g>
		</g>
		<g style="opacity:0.3;">
			<path d="M228.956,384.364c0,0,2.59,29.432,2.59,39.91h-7.453L228.956,384.364z"/>
		</g>
		<g>
			<g>
				<path style="fill:#E0E0E0;" d="M211.114,384.364c0,0,2.133,39.773-6.781,53.447l19.933-0.006c0,0,5.76-21.733,4.691-53.441
					H211.114z"/>
			</g>
		</g>
		<g>
			<g>
				<g>
					<g>
						<path style="fill:#FFBF9D;" d="M489.854,211.405l33.521-38.54l-33.756-24.523l26.492-15.591c0,0,41.55,25.254,41.016,40.406
							c-0.486,13.801-52.863,48.712-52.863,48.712L489.854,211.405z"/>
					</g>
				</g>
				<g>
					<g>
						<g>
							<g>
								<g>
									<g>
										<g>
											<g>
												<g>
													<g>
														<g>
															<path style="fill:#FF725E;" d="M463.554,298.951c-5.096,8.387-12.762,15.312-22.461,19.438
																c-11.945,5.082-25.155,5.207-37.195,0.354c-12.041-4.854-21.471-14.106-26.552-26.052
																c-10.491-24.659,1.037-53.257,25.698-63.749l0,0c11.946-5.081,25.156-5.207,37.196-0.354
																c12.04,4.853,21.47,14.105,26.552,26.052C473.155,269.602,471.414,286.015,463.554,298.951z M383.36,250.073
																c-7.336,12.072-8.959,27.383-3.021,41.344c4.741,11.146,13.54,19.779,24.774,24.307
																c11.234,4.53,23.56,4.412,34.705-0.33c11.147-4.741,19.779-13.539,24.307-24.774
																c4.529-11.233,4.412-23.559-0.33-34.705c-4.741-11.145-13.54-19.778-24.774-24.306
																c-11.234-4.53-23.559-4.412-34.705,0.33C395.269,235.786,388.115,242.249,383.36,250.073z"/>
														</g>
													</g>
												</g>
											</g>
										</g>
									</g>
								</g>
							</g>
							<g style="opacity:0.3;">
								<g>
									<g>
										<g>
											<g>
												<g>
													<g>
														<g>
															<path d="M463.554,298.951c-5.096,8.387-12.762,15.312-22.461,19.438c-11.945,5.082-25.155,5.207-37.195,0.354
																c-12.041-4.854-21.471-14.106-26.552-26.052c-10.491-24.659,1.037-53.257,25.698-63.749l0,0
																c11.946-5.081,25.156-5.207,37.196-0.354c12.04,4.853,21.47,14.105,26.552,26.052
																C473.155,269.602,471.414,286.015,463.554,298.951z M383.36,250.073c-7.336,12.072-8.959,27.383-3.021,41.344
																c4.741,11.146,13.54,19.779,24.774,24.307c11.234,4.53,23.56,4.412,34.705-0.33
																c11.147-4.741,19.779-13.539,24.307-24.774c4.529-11.233,4.412-23.559-0.33-34.705
																c-4.741-11.145-13.54-19.778-24.774-24.306c-11.234-4.53-23.559-4.412-34.705,0.33
																C395.269,235.786,388.115,242.249,383.36,250.073z"/>
														</g>
													</g>
												</g>
											</g>
										</g>
									</g>
								</g>
							</g>
							<g>
								<g>
									<g>
										<g>
											<g>
												<g>
													<g>
														<g>
															<path style="fill:#FF725E;" d="M461.582,296.817c-5.096,8.387-12.762,15.312-22.461,19.438
																c-11.945,5.082-25.155,5.207-37.195,0.354c-12.041-4.854-21.471-14.106-26.552-26.052
																c-10.491-24.66,1.037-53.257,25.698-63.749l0,0c11.946-5.081,25.156-5.207,37.196-0.354
																c12.04,4.853,21.47,14.105,26.552,26.052C471.184,267.467,469.443,283.881,461.582,296.817z M381.389,247.939
																c-7.335,12.071-8.959,27.383-3.021,41.344c4.742,11.146,13.54,19.779,24.774,24.307
																c11.234,4.529,23.559,4.412,34.705-0.33c11.147-4.741,19.779-13.539,24.307-24.774
																c4.529-11.233,4.412-23.559-0.33-34.705c-4.741-11.145-13.54-19.778-24.774-24.306
																c-11.234-4.529-23.559-4.412-34.705,0.33C393.298,233.652,386.143,240.115,381.389,247.939z"/>
														</g>
													</g>
												</g>
											</g>
										</g>
									</g>
								</g>
							</g>
						</g>
						<g>
							<g>
								<g>
									<g>
										<g>
											<g>
												<g>
													<g>
														<g>
															<g>
																<g>
																	<path style="fill:#FF725E;" d="M532.255,207.484l1.908,2.965c1.702,2.645-0.384,6.905-4.12,8.632l-63.435,38.837
																		l-5.916-8.656l61.833-43.297C526.517,202.936,530.063,204.078,532.255,207.484z"/>
																</g>
															</g>
														</g>
													</g>
												</g>
											</g>
										</g>
									</g>
								</g>
							</g>
						</g>
					</g>
					<g>
						<g>
							<path style="fill:#FFFFFF;" d="M422.08,231.151c-0.001,0.018-0.277,0.026-0.8,0.024c-0.523,0.022-1.292-0.065-2.281,0.02
								c-1.978,0.047-4.843,0.398-8.25,1.345c-1.706,0.465-3.524,1.144-5.437,1.954c-1.879,0.884-3.883,1.857-5.841,3.138
								c-1.974,1.247-3.969,2.688-5.869,4.378c-1.907,1.677-3.78,3.542-5.446,5.661c-1.677,2.107-3.09,4.336-4.253,6.594
								c-1.139,2.272-2.006,4.572-2.686,6.805c-1.286,4.493-1.737,8.725-1.644,12.259c0.081,3.536,0.546,6.382,1.016,8.305
								c0.186,0.975,0.451,1.701,0.566,2.211c0.134,0.505,0.196,0.774,0.179,0.78c-0.017,0.006-0.112-0.252-0.279-0.749
								c-0.148-0.502-0.445-1.222-0.663-2.194c-0.533-1.918-1.058-4.777-1.187-8.345c-0.141-3.565,0.275-7.847,1.551-12.401
								c0.675-2.264,1.543-4.596,2.691-6.901c1.172-2.291,2.602-4.554,4.302-6.69c1.688-2.145,3.585-4.03,5.517-5.72
								c1.926-1.703,3.948-3.152,5.95-4.4c1.985-1.282,4.017-2.252,5.923-3.127c1.94-0.802,3.783-1.467,5.512-1.913
								c3.453-0.911,6.35-1.208,8.343-1.192c0.996-0.053,1.769,0.066,2.292,0.078C421.808,231.106,422.082,231.133,422.08,231.151z"
								/>
						</g>
					</g>
					<g>
						<g>
							<path style="fill:#FFFFFF;" d="M459.989,283.115c-0.118-0.039,0.778-2.23,1.41-5.954c0.072-0.469,0.147-0.957,0.224-1.464
								c0.074-0.509,0.092-1.046,0.144-1.598c0.125-1.103,0.105-2.289,0.121-3.535c-0.069-2.49-0.357-5.224-0.997-8.029
								c-0.677-2.798-1.638-5.374-2.686-7.634c-0.57-1.108-1.08-2.179-1.684-3.111c-0.292-0.471-0.548-0.943-0.841-1.366
								c-0.295-0.419-0.58-0.823-0.853-1.21c-2.226-3.053-4.005-4.614-3.916-4.701c0.024-0.026,0.461,0.366,1.233,1.1
								c0.393,0.361,0.858,0.818,1.342,1.4c0.492,0.575,1.093,1.198,1.637,1.983c0.285,0.386,0.582,0.787,0.89,1.204
								c0.305,0.422,0.573,0.895,0.877,1.366c0.627,0.934,1.159,2.01,1.748,3.127c1.087,2.278,2.075,4.886,2.761,7.723
								c0.65,2.844,0.928,5.619,0.97,8.142c-0.029,1.262-0.025,2.463-0.171,3.578c-0.062,0.558-0.09,1.1-0.176,1.613
								c-0.09,0.511-0.177,1.003-0.26,1.475c-0.137,0.945-0.398,1.771-0.581,2.505c-0.175,0.737-0.387,1.353-0.578,1.851
								C460.238,282.582,460.022,283.127,459.989,283.115z"/>
						</g>
					</g>
					<g>
						<g>
							<path style="fill:#FFFFFF;" d="M429.954,248.69c0.097,0.106-6.445,6.234-14.61,13.684
								c-8.168,7.453-14.866,13.407-14.963,13.301c-0.097-0.106,6.444-6.232,14.612-13.686
								C423.158,254.539,429.858,248.583,429.954,248.69z"/>
						</g>
					</g>
					<g>
						<g>
							<path style="fill:#FFFFFF;" d="M442.436,256.576c0.011,0.014-0.149,0.167-0.465,0.447c-0.361,0.31-0.824,0.709-1.397,1.202
								c-1.274,1.073-3.033,2.554-5.184,4.365c-4.381,3.681-10.419,8.782-17.025,14.489c-6.607,5.71-12.531,10.944-16.809,14.744
								c-2.105,1.866-3.825,3.391-5.071,4.495c-0.571,0.495-1.033,0.896-1.392,1.208c-0.322,0.272-0.497,0.408-0.509,0.395
								c-0.012-0.013,0.139-0.176,0.438-0.472c0.343-0.331,0.782-0.755,1.326-1.28c1.158-1.105,2.853-2.684,4.961-4.619
								c4.216-3.872,10.105-9.152,16.715-14.865c6.61-5.709,12.688-10.769,17.131-14.378c2.221-1.805,4.029-3.253,5.291-4.239
								c0.599-0.462,1.082-0.835,1.459-1.126C442.243,256.688,442.425,256.562,442.436,256.576z"/>
						</g>
					</g>
					<g style="opacity:0.3;">
						<path style="fill:#FFFFFF;" d="M381.667,294.265l66.71-57.554c0,0,6.597,5.045,9.392,9.562l-68.266,58.764
							C389.503,305.036,384.356,300.475,381.667,294.265z"/>
					</g>
					<g style="opacity:0.3;">
						<path style="fill:#FFFFFF;" d="M396.81,310.405l65.014-56.625c0,0,0.315-0.535,1.205,3.539l-63.068,54.846
							C399.961,312.165,398.436,311.819,396.81,310.405z"/>
					</g>
				</g>
				<g>
					<g>
						<g>
							<g>
								<g>
									<g>
										<path style="fill:#FFBF9D;" d="M489.854,211.405c0,0-19.566,21.547-20.004,22.354c-0.438,0.807-5.714,13.248-4.409,15.77
											s11.1,11.371,11.1,11.371s3.495-1.514,0.189-7.427c-3.306-5.912-3.306-5.912-3.306-5.912l1.776-5.969
											c0,0,2.642,7.567,4.169,9.226c1.528,1.659,7.588,4.499,9.109,3.044c1.521-1.455,1.75-3.236,1.75-3.236
											s4.146,3.307,7.083-1.943c0,0,3.686-0.572,5.271-3.153c1.585-2.582,1.378-7.58,1.378-7.58s-1.225-2.386-3.587-0.809
											c-2.361,1.576-3.491,4.621-3.491,4.621l-1.712-2.281c0,0,0.724-5.281,2.609-8.905c1.188-2.284,8.873-7.259,9.781-11.211
											c0.769-3.35-5.935-5.57-9.367-5.384l0,0c-0.517,0.028-1.026,0.133-1.512,0.311L489.854,211.405z"/>
									</g>
								</g>
								<g>
									<g>
										<g>
											<path style="fill:#FF9A6C;" d="M488.145,238.923c-0.018,0.001-0.026,0.209-0.001,0.583
												c0.025,0.374,0.1,0.915,0.266,1.568c0.323,1.299,1.105,3.061,2.545,4.555c1.441,1.493,3.175,2.338,4.462,2.707
												c0.646,0.189,1.184,0.284,1.557,0.322c0.373,0.039,0.581,0.038,0.583,0.02c0.008-0.055-0.823-0.116-2.077-0.538
												c-1.247-0.412-2.916-1.262-4.315-2.713c-1.399-1.45-2.189-3.148-2.557-4.409
												C488.232,239.75,488.2,238.917,488.145,238.923z"/>
										</g>
									</g>
								</g>
								<g>
									<g>
										<g>
											<path style="fill:#FF9A6C;" d="M481.574,238.269c-0.02,0.001-0.017,0.222,0.007,0.623
												c0.008,0.201,0.027,0.446,0.075,0.728c0.044,0.282,0.078,0.607,0.168,0.955c0.142,0.706,0.394,1.528,0.748,2.413
												c0.37,0.878,0.852,1.813,1.465,2.727c0.624,0.908,1.316,1.7,1.995,2.368c0.692,0.655,1.364,1.193,1.967,1.585
												c0.291,0.211,0.581,0.363,0.826,0.508c0.244,0.148,0.465,0.256,0.649,0.338c0.364,0.17,0.568,0.254,0.577,0.236
												c0.026-0.051-0.78-0.424-1.935-1.25c-0.58-0.408-1.228-0.953-1.897-1.607c-0.657-0.667-1.33-1.449-1.942-2.34
												c-0.602-0.898-1.278-1.929-1.655-2.786c-0.361-0.864-0.432-1.548-0.598-2.238
												C481.681,239.151,481.632,238.264,481.574,238.269z"/>
										</g>
									</g>
								</g>
								<g>
									<g>
										<g>
											<path style="fill:#FF9A6C;" d="M474.075,236.711c-0.031-0.01-0.168,0.289-0.234,0.811
												c-0.068,0.519-0.031,1.265,0.238,2.027c0.369,1.031,0.768,1.411,1.096,1.722c0.382,0.363,0.676,0.508,0.694,0.481
												c0.064-0.064-1.012-0.833-1.517-2.3C473.817,237.997,474.165,236.72,474.075,236.711z"/>
										</g>
									</g>
								</g>
							</g>
						</g>
					</g>
				</g>
				<g>
					<g>
						<path style="fill:#FF9A6C;" d="M541.541,170.57c-0.05,0.081-1.071-0.637-2.928-1.309c-1.837-0.677-4.591-1.207-7.553-0.712
							c-2.974,0.465-5.286,2.108-6.707,3.443c-1.441,1.352-2.156,2.371-2.23,2.314c-0.027-0.019,0.123-0.292,0.444-0.753
							c0.321-0.461,0.824-1.103,1.529-1.825c1.38-1.431,3.764-3.205,6.878-3.693c3.077-0.514,5.924,0.099,7.771,0.882
							c0.933,0.388,1.646,0.792,2.112,1.107C541.324,170.339,541.559,170.543,541.541,170.57z"/>
					</g>
				</g>
			</g>
			<g>
				<g>
					<g>
						<g>
							<g>
								<g>
									<g>
										<g>
											<g>
												<g>
													<g>
														<g>
															<g>
																<g>
																	<path style="fill:#263238;" d="M440.127,81.464c0.009-6.555-0.02-13.146-1.139-19.605
																		c-1.119-6.458-3.388-12.834-7.452-17.977c-0.616-0.78-5.348-5.817-6.258-5.419
																		c-0.651,0.284,2.873,5.271,2.722,5.964c-1.442,6.623-0.156,13.61,2.441,19.87
																		C433.038,70.558,436.246,75.908,440.127,81.464"/>
																</g>
															</g>
														</g>
													</g>
												</g>
											</g>
										</g>
									</g>
								</g>
								<g>
									<g>
										<g>
											<g>
												<path style="fill:#FFBF9D;" d="M433.044,57.471c-4.549-15.797-17.535-26.316-33.2-21.331l-1.421,0.545
													c-14.297,5.487-21.991,21.031-17.671,35.724c4.019,13.67,8.636,28.722,11.453,35.803
													c5.833,14.657,21.441,11.294,21.441,11.294c0.034-0.011,9.746,22.406,9.746,22.406l30.993-15.889L433.044,57.471z"/>
											</g>
										</g>
									</g>
								</g>
								<g>
									<g>
										<g>
											<g>
												<g>
													<g>
														<g>
															<g>
																<g>
																	<g>
																		<g>
																			<path style="fill:#FF9A6C;" d="M413.678,119.622c0,0,9.492-3.018,16.999-13.027c0,0,0.439,13.768-14.764,18.081
																				L413.678,119.622z"/>
																		</g>
																	</g>
																</g>
															</g>
														</g>
													</g>
												</g>
											</g>
										</g>
									</g>
								</g>
								<g>
									<g>
										<g>
											<g>
												<g>
													<g>
														<g>
															<g>
																<g>
																	<g>
																		<g>
																			<g>
																				<g>
																					<g>
																						<g>
																							<g>
																								<g>
																									<path style="fill:#263238;" d="M391.208,85.69c0.386,1.126,1.659,1.726,2.842,1.344
																										c1.181-0.382,1.827-1.603,1.44-2.728c-0.387-1.126-1.659-1.728-2.84-1.346
																										C391.467,83.342,390.821,84.565,391.208,85.69z"/>
																								</g>
																							</g>
																						</g>
																					</g>
																				</g>
																			</g>
																		</g>
																	</g>
																</g>
															</g>
														</g>
													</g>
												</g>
											</g>
										</g>
									</g>
								</g>
								<g>
									<g>
										<g>
											<g>
												<g>
													<g>
														<g>
															<g>
																<g>
																	<g>
																		<g>
																			<g>
																				<g>
																					<g>
																						<g>
																							<g>
																								<g>
																									<g>
																										<path style="fill:#263238;" d="M386.245,77.313c0.366,0.174,1.507-1.617,3.772-2.479
																											c2.25-0.894,4.358-0.367,4.497-0.739c0.074-0.169-0.382-0.562-1.307-0.811
																											c-0.913-0.251-2.323-0.295-3.73,0.252c-1.406,0.549-2.393,1.523-2.871,2.315
																											C386.115,76.653,386.069,77.239,386.245,77.313z"/>
																									</g>
																								</g>
																							</g>
																						</g>
																					</g>
																				</g>
																			</g>
																		</g>
																	</g>
																</g>
															</g>
														</g>
													</g>
												</g>
											</g>
										</g>
									</g>
								</g>
								<g>
									<g>
										<g>
											<g>
												<g>
													<g>
														<g>
															<g>
																<g>
																	<g>
																		<g>
																			<g>
																				<g>
																					<g>
																						<g>
																							<g>
																								<g>
																									<path style="fill:#263238;" d="M410.558,78.904c0.387,1.125,1.659,1.726,2.842,1.343
																										c1.181-0.382,1.827-1.602,1.44-2.728c-0.387-1.125-1.659-1.727-2.841-1.345
																										C410.816,76.556,410.171,77.778,410.558,78.904z"/>
																								</g>
																							</g>
																						</g>
																					</g>
																				</g>
																			</g>
																		</g>
																	</g>
																</g>
															</g>
														</g>
													</g>
												</g>
											</g>
										</g>
									</g>
								</g>
								<g>
									<g>
										<g>
											<g>
												<g>
													<g>
														<g>
															<g>
																<g>
																	<g>
																		<g>
																			<g>
																				<g>
																					<g>
																						<g>
																							<g>
																								<g>
																									<g>
																										<path style="fill:#263238;" d="M408.764,69.722c0.366,0.174,1.509-1.617,3.773-2.479
																											c2.25-0.894,4.358-0.367,4.497-0.739c0.073-0.169-0.38-0.562-1.308-0.81
																											c-0.913-0.252-2.323-0.295-3.73,0.251c-1.407,0.549-2.393,1.523-2.871,2.316
																											C408.636,69.061,408.589,69.648,408.764,69.722z"/>
																									</g>
																								</g>
																							</g>
																						</g>
																					</g>
																				</g>
																			</g>
																		</g>
																	</g>
																</g>
															</g>
														</g>
													</g>
												</g>
											</g>
										</g>
									</g>
								</g>
								<g>
									<g>
										<g>
											<g>
												<g>
													<g>
														<g>
															<g>
																<g>
																	<g>
																		<g>
																			<g>
																				<g>
																					<g>
																						<g>
																							<g>
																								<g>
																									<path style="fill:#263238;" d="M407.319,90.227c-0.039-0.133-1.539,0.164-3.93,0.747
																										c-0.601,0.162-1.192,0.257-1.441-0.1c-0.296-0.365-0.294-1.081-0.272-1.861
																										c0.007-1.607,0.013-3.291,0.02-5.056c-0.031-7.176-0.29-12.987-0.578-12.983
																										c-0.289,0.004-0.499,5.823-0.468,12.999c0.022,1.764,0.04,3.447,0.062,5.055
																										c0.034,0.741-0.057,1.63,0.571,2.383c0.321,0.372,0.866,0.523,1.274,0.48
																										c0.414-0.029,0.741-0.147,1.034-0.24C405.933,90.894,407.36,90.359,407.319,90.227z"/>
																								</g>
																							</g>
																						</g>
																					</g>
																				</g>
																			</g>
																		</g>
																	</g>
																</g>
															</g>
														</g>
													</g>
												</g>
											</g>
										</g>
									</g>
								</g>
								<g>
									<g>
										<g>
											<g>
												<g>
													<g>
														<g>
															<g>
																<g>
																	<g>
																		<g>
																			<g>
																				<g>
																					<g>
																						<g>
																							<g>
																								<g>
																									<path style="fill:#263238;" d="M414.58,89.236c-0.377,0.12,0.561,2.578-0.872,5.129
																										c-1.428,2.554-4.152,3.283-4.039,3.634c0.025,0.167,0.766,0.253,1.883-0.141
																										c1.098-0.379,2.548-1.335,3.425-2.895c0.872-1.562,0.876-3.2,0.573-4.24
																										C415.25,89.66,414.743,89.157,414.58,89.236z"/>
																								</g>
																							</g>
																						</g>
																					</g>
																				</g>
																			</g>
																		</g>
																	</g>
																</g>
															</g>
														</g>
													</g>
												</g>
											</g>
										</g>
									</g>
								</g>
								<g>
									<g>
										<g>
											<g>
												<g>
													<g>
														<g>
															<g>
																<g>
																	<g>
																		<g>
																			<g>
																				<g>
																					<path style="fill:#263238;" d="M405.364,60.49c0.459,0.53,2.607-0.629,5.385-1.328
																						c2.764-0.755,5.203-0.799,5.344-1.486c0.056-0.324-0.54-0.76-1.634-1.023
																						c-1.086-0.265-2.672-0.306-4.334,0.129c-1.661,0.438-3.023,1.251-3.839,2.015
																						C405.461,59.563,405.156,60.235,405.364,60.49z"/>
																				</g>
																			</g>
																		</g>
																	</g>
																</g>
															</g>
														</g>
													</g>
												</g>
											</g>
										</g>
									</g>
								</g>
								<g>
									<g>
										<g>
											<g>
												<g>
													<g>
														<g>
															<g>
																<g>
																	<g>
																		<g>
																			<g>
																				<g>
																					<path style="fill:#263238;" d="M384.293,69.431c0.595,0.361,1.949-0.771,3.815-1.515
																						c1.839-0.81,3.595-0.983,3.754-1.661c0.06-0.322-0.388-0.741-1.268-0.962c-0.869-0.222-2.165-0.18-3.439,0.353
																						c-1.273,0.535-2.21,1.429-2.66,2.207C384.035,68.635,384.021,69.248,384.293,69.431z"/>
																				</g>
																			</g>
																		</g>
																	</g>
																</g>
															</g>
														</g>
													</g>
												</g>
											</g>
										</g>
									</g>
								</g>
								<g>
									<g>
										<g>
											<g>
												<g>
													<g>
														<g>
															<g>
																<g>
																	<path style="fill:#FFBF9D;" d="M436.026,68.837c0.21-0.205,8.97-6.876,12.513,3.315
																		c3.542,10.191-7.421,11.645-7.54,11.359C440.879,83.226,436.026,68.837,436.026,68.837z"/>
																</g>
															</g>
														</g>
													</g>
												</g>
											</g>
										</g>
									</g>
								</g>
								<g>
									<g>
										<g>
											<g>
												<g>
													<g>
														<g>
															<g>
																<g>
																	<g>
																		<path style="fill:#FF9A6C;" d="M442.77,78.569c0.033-0.048,0.221,0.062,0.568,0.096
																			c0.339,0.032,0.875-0.05,1.337-0.434c0.94-0.769,1.252-2.793,0.663-4.648c-0.297-0.936-0.798-1.752-1.381-2.369
																			c-0.57-0.637-1.234-0.991-1.809-0.899c-0.583,0.063-0.854,0.521-0.879,0.851c-0.038,0.332,0.098,0.513,0.05,0.55
																			c-0.02,0.036-0.278-0.094-0.342-0.544c-0.028-0.217,0.008-0.499,0.179-0.778c0.175-0.284,0.5-0.51,0.892-0.601
																			c0.805-0.219,1.764,0.258,2.404,0.935c0.685,0.666,1.27,1.575,1.603,2.627c0.648,2.076,0.265,4.363-1.06,5.301
																			c-0.652,0.436-1.325,0.428-1.717,0.295C442.874,78.809,442.741,78.6,442.77,78.569z"/>
																	</g>
																</g>
															</g>
														</g>
													</g>
												</g>
											</g>
										</g>
									</g>
								</g>
								<g>
									<g>
										<g>
											<g>
												<g>
													<g>
														<g>
															<g>
																<g>
																	<path style="fill:#263238;" d="M381.646,53.241c-1.962-0.354,1.193-7.388,4.636-10.606
																		c5.203-4.863,14.006-9.748,20.214-10.055c7.474-0.369,14.287,1.111,19.808,6.162
																		c5.521,5.052,9.251,11.85,11.446,19.005c0.669,2.183,1.207,4.513,0.669,6.732c-0.665,2.742-2.923,5.091-1.75,8.168
																		c0.429,1.125,0.492,2.384-0.008,3.479c-1.198,2.621-4.118,1.524-5.803,0.005c-3.599-3.245-5.464-7.941-7.21-12.461
																		c-1.242-3.213-2.499-6.498-2.637-9.94c-0.076-1.873,0.184-3.754,0.005-5.619c-0.179-1.866-0.894-3.81-2.448-4.859
																		c-0.253-0.171-0.639-0.363-1.114-0.56c-3.751-1.56-8.061-0.951-11.256,1.559
																		c-5.068,3.98-13.872,10.342-17.099,9.255c-4.643-1.563-6.145-3.097-6.145-3.097L381.646,53.241z"/>
																</g>
															</g>
														</g>
													</g>
												</g>
											</g>
										</g>
									</g>
								</g>
							</g>
						</g>
					</g>
				</g>
			</g>
			<g>
				<g>
					<g>
						<g>
							<g>
								<path style="fill:#FF725E;" d="M366.23,148.08c0,0-1.456-4.118,3.488-9.663c4.944-5.545,44.182-16.389,44.182-16.389
									s14.262,16.151,26.6,5.126c8.982-8.027,9.303-16.045,9.303-16.045h35.493l4.435,36.469l-14.157,0.082L366.23,148.08z"/>
							</g>
						</g>
						<g>
							<g>
								<path style="fill:#FF725E;" d="M478.849,111.109c0,0,9.26-1.867,17.719,1.966c14.217,6.442,38.906,26.943,38.906,26.943
									l-30.033,24.655l-20.801-17.065L478.849,111.109z"/>
							</g>
						</g>
					</g>
				</g>
				<g>
					<g>
						<path style="fill:#263238;" d="M491.746,153.586c-0.01,0.015-0.142-0.054-0.384-0.199c-0.242-0.146-0.599-0.362-1.036-0.674
							c-0.883-0.611-2.125-1.553-3.53-2.867c-1.399-1.316-2.99-2.984-4.45-5.081c-1.457-2.074-2.823-4.64-3.308-7.577
							c-1.037-5.815-0.124-11.338,1.752-14.742c0.931-1.709,2.065-2.84,2.919-3.498c0.427-0.33,0.812-0.512,1.051-0.662
							c0.246-0.14,0.378-0.205,0.387-0.19c0.025,0.042-0.479,0.362-1.311,1.01c-0.797,0.693-1.855,1.828-2.72,3.512
							c-1.742,3.347-2.582,8.776-1.565,14.473c0.472,2.857,1.776,5.337,3.191,7.4c1.413,2.075,2.957,3.75,4.309,5.087
							c1.359,1.335,2.556,2.313,3.396,2.97C491.285,153.21,491.77,153.549,491.746,153.586z"/>
					</g>
				</g>
				<g>
					<g>
						<path style="fill:#263238;" d="M484.64,147.607c0,0.144-24.443,0.358-54.59,0.479c-30.157,0.121-54.597,0.102-54.597-0.042
							c0-0.144,24.438-0.358,54.595-0.479C460.195,147.445,484.64,147.464,484.64,147.607z"/>
					</g>
				</g>
			</g>
			<g>
				<g>
					<g>
						<g>
							<path style="fill:#FFBF9D;" d="M353.441,142.617c0.068,0.15,0.13,0.303,0.186,0.458c0.257,0.705,0.394,1.449,0.447,2.197
								c0.024,0.343-0.027,0.723,0.049,1.059c0.051,0.227,0.204,0.411,0.292,0.624c0.562,1.35,0.432,2.949,0.387,4.374
								c-0.051,1.608-0.031,3.314,0.809,4.686c0.84,1.372,2.794,2.186,4.117,1.27c-0.201,1.004,0.584,2.04,1.575,2.298
								c0.991,0.258,2.073-0.154,2.805-0.871c0.732-0.716,1.154-1.695,1.406-2.687c-0.071,1.2,1.113,2.231,2.315,2.248
								c1.202,0.017,2.306-0.782,2.941-1.803c0.635-1.021,0.874-2.237,1.013-3.431c0.139-1.194,0.414-3.433,0.727-4.594
								c0,0,1.509,0.242,2.198,0.308c0.934,0.089,0.202,0.02,0.202,0.02c0.507-0.496,0.888-1.363,1.444-2.507
								c0.963-1.98,1.696-3.235,2.432-5.033c0.551-1.346,0.909-2.691,0.076-3.567c-2.004-2.109-5.923,2.18-5.923,2.18
								c-0.554-1.493-5.108-1.736-5.994,0.253c-0.361-1.096-0.223-1.731-1.111-2.467c-0.888-0.736-2.115-1.117-3.227-0.813
								c-1.112,0.304-2.022,1.378-1.959,2.529c-0.937-1.51-2.878-2.322-4.611-1.927c-1.042,0.238-1.963,0.902-2.572,1.775
								c-0.306,0.439-0.524,0.926-0.658,1.444c-0.048,0.185-0.128,0.401-0.107,0.595c0.011,0.095,0.049,0.178,0.094,0.262
								C352.996,141.88,353.261,142.218,353.441,142.617z"/>
						</g>
					</g>
					<g>
						<g>
							<path style="fill:#FFBF9D;" d="M348.632,139.707c-0.992-0.035-2.072,0.169-2.733,0.909c-0.784,0.877-0.943,2.616-0.854,3.789
								c1.375,0.259,2.086,0.311,3.46,0.571c0.29,0.055,0.532-0.019,0.772,0.152c0.634,0.45,0.531,1.967,0.786,2.701
								c0.443,1.274,2.075,1.896,3.34,1.428c1.265-0.468,2.079-1.814,2.143-3.161c0.064-1.347-0.529-2.665-1.396-3.697
								C352.794,140.785,350.738,139.782,348.632,139.707z"/>
						</g>
					</g>
					<g>
						<g>
							<g>
								<path style="fill:#FF9A6C;" d="M360.664,138.95c0.258,0.013,0.256,4.127-0.002,9.187c-0.259,5.062-0.677,9.154-0.935,9.141
									c-0.257-0.013-0.256-4.126,0.003-9.188C359.988,143.029,360.407,138.937,360.664,138.95z"/>
							</g>
						</g>
					</g>
					<g>
						<g>
							<g>
								<path style="fill:#FF9A6C;" d="M366.981,139.822c0.247-0.011,0.582,3.734,0.178,8.339c-0.39,4.607-1.361,8.239-1.601,8.186
									c-0.263-0.053,0.288-3.721,0.672-8.266C366.628,143.538,366.713,139.829,366.981,139.822z"/>
							</g>
						</g>
					</g>
				</g>
				<g>
					<g>
						<g>
							<path style="fill:#FF9A6C;" d="M373.155,140.667c0.262,0,0.372,3.114-0.112,6.888c-0.481,3.768-1.061,6.774-1.305,6.751
								c-0.27-0.026-0.1-3.115,0.379-6.863C372.597,143.7,372.901,140.665,373.155,140.667z"/>
						</g>
					</g>
				</g>
				<g>
					<g>
						<g>
							<path style="fill:#FF9A6C;" d="M350.614,140.35c-0.008-0.111,0.659-0.259,1.61,0.176c0.94,0.406,2.016,1.506,2.527,2.956
								c0.505,1.464,0.669,2.723,0.628,3.784c-0.113,1.139-0.939,1.47-0.958,1.323c-0.072-0.104,0.375-0.497,0.299-1.343
								c-0.112-0.822-0.393-2.175-0.841-3.434c-0.462-1.287-1.257-2.218-1.981-2.713
								C351.182,140.595,350.601,140.492,350.614,140.35z"/>
						</g>
					</g>
				</g>
			</g>
		</g>
	</g>
</g>
<g id="Wrench">
	<g>
		<g>
			<g>
				<g>
					<path style="fill:#E0E0E0;" d="M502.163,457.203c9.801-6.393,14.436-17.722,12.782-28.582l11.36-7.446l1.608-1.032
						l89.866-58.904c9.273,5.891,21.509,6.217,31.31-0.176c8.336-5.437,12.938-14.444,13.112-23.697l-5.218-0.865l-5.722,8.001
						l-13.151-2.768l-7.342-11.257l2.768-13.152l10.94-7.136l-7.406-1.94c-7.836-2.308-12.188-0.425-19.566,4.387
						c-9.787,6.383-14.422,17.688-12.79,28.534l-91.371,59.89l-2.837,1.837l-8.66,5.676c-9.268-5.866-21.482-6.181-31.268,0.203
						c-7.348,4.793-17.261,14.767-18.33,22.832l5.218,0.865l10.94-7.136l13.152,2.768l7.342,11.257l-2.768,13.152l-11.766,3.329
						l0.826,3.806C483.729,463.222,493.828,462.64,502.163,457.203z"/>
				</g>
			</g>
			<g style="opacity:0.3;">
				<g>
					<g>
						<path d="M502.163,457.203c9.801-6.393,14.436-17.722,12.782-28.582l11.36-7.446l1.608-1.032l89.866-58.904
							c9.273,5.891,21.509,6.217,31.31-0.176c8.336-5.437,12.938-14.444,13.112-23.697l-5.218-0.865l-5.722,8.001l-13.151-2.768
							l-7.342-11.257l2.768-13.152l10.94-7.136l-7.406-1.94c-7.836-2.308-12.188-0.425-19.566,4.387
							c-9.787,6.383-14.422,17.688-12.79,28.534l-91.371,59.89l-2.837,1.837l-8.66,5.676c-9.268-5.866-21.482-6.181-31.268,0.203
							c-7.348,4.793-17.261,14.767-18.33,22.832l5.218,0.865l10.94-7.136l13.152,2.768l7.342,11.257l-2.768,13.152l-11.766,3.329
							l0.826,3.806C483.729,463.222,493.828,462.64,502.163,457.203z"/>
					</g>
				</g>
			</g>
		</g>
		<g>
			<g>
				<g>
					<path style="fill:#E0E0E0;" d="M496.945,456.338c9.801-6.393,14.436-17.722,12.782-28.582l11.36-7.446l1.608-1.032
						l89.866-58.904c9.273,5.891,21.509,6.217,31.31-0.176c8.336-5.437,12.938-14.444,13.112-23.697l-10.94,7.135l-13.152-2.768
						l-7.342-11.257l2.768-13.152l10.94-7.136c-8.538-3.571-18.637-2.989-26.972,2.447c-9.787,6.383-14.422,17.688-12.789,28.534
						l-91.371,59.89l-2.837,1.837l-8.66,5.676c-9.268-5.866-21.482-6.181-31.268,0.203c-8.336,5.437-12.938,14.444-13.112,23.698
						l10.94-7.135l13.152,2.768l7.342,11.257l-2.768,13.152l-10.94,7.135C478.511,462.357,488.609,461.775,496.945,456.338z"/>
				</g>
			</g>
			<g>
				<g>
					<g>
						<path style="fill:#263238;" d="M496.945,456.338c0,0-0.521,0.339-1.558,0.98c-1.072,0.574-2.666,1.466-4.93,2.24
							c-2.254,0.78-5.175,1.437-8.683,1.55c-3.495,0.053-7.604-0.465-11.841-2.227l-0.179-0.075l0.163-0.107
							c3.236-2.118,6.923-4.531,10.929-7.152l-0.053,0.078c0.849-4.058,1.771-8.469,2.751-13.155l0.02,0.105
							c-2.298-3.515-4.768-7.292-7.354-11.249l0.098,0.067c-4.086-0.856-8.535-1.788-13.154-2.756l0.126-0.024
							c-3.383,2.21-7.1,4.64-10.934,7.145l-0.281,0.184l0.006-0.336c0.078-4.586,1.268-9.317,3.636-13.587
							c2.353-4.269,5.896-8.055,10.3-10.726c4.375-2.702,9.623-4.281,15.032-4.278c5.399-0.023,10.937,1.494,15.706,4.512
							l-0.233,0.002c30.466-19.974,65.469-42.923,102.85-67.431l-0.109,0.244c-0.795-5.258-0.123-10.907,2.109-16.024
							c2.206-5.124,6.01-9.652,10.802-12.762c4.013-2.618,8.654-4.216,13.375-4.618c4.721-0.414,9.504,0.349,13.817,2.158
							l0.432,0.181l-0.392,0.255c-3.672,2.395-7.319,4.773-10.94,7.134l0.106-0.156c-0.93,4.417-1.854,8.801-2.77,13.151
							l-0.035-0.184c2.471,3.789,4.916,7.54,7.341,11.258l-0.153-0.105c4.433,0.934,8.813,1.857,13.151,2.771l-0.181,0.034
							c3.689-2.405,7.334-4.781,10.942-7.133l0.377-0.246l-0.011,0.449c-0.131,5.45-1.743,10.798-4.64,15.249
							c-2.875,4.463-6.94,8.047-11.562,10.316c-4.61,2.29-9.756,3.324-14.733,2.977c-4.98-0.322-9.766-1.924-13.84-4.492
							l0.233-0.002c-44.615,29.18-80.525,52.666-102.891,67.293l0.048-0.108c0.806,5.374-0.027,10.226-1.372,14.104
							c-1.434,3.872-3.345,6.834-5.16,8.951c-1.803,2.143-3.498,3.443-4.595,4.334C497.544,455.939,496.945,456.338,496.945,456.338
							s0.577-0.432,1.728-1.256c1.084-0.904,2.761-2.215,4.543-4.361c1.794-2.121,3.679-5.078,5.089-8.934
							c1.321-3.862,2.13-8.684,1.314-14.015l-0.011-0.07l0.059-0.039c22.341-14.666,58.21-38.214,102.776-67.47l0.116-0.076
							l0.118,0.074c4.015,2.525,8.732,4.099,13.637,4.412c4.902,0.338,9.966-0.685,14.503-2.942
							c4.549-2.238,8.547-5.768,11.373-10.16c2.848-4.381,4.43-9.644,4.557-15.006l0.367,0.203
							c-3.606,2.353-7.25,4.731-10.938,7.138l-0.083,0.054l-0.098-0.021c-4.338-0.912-8.719-1.833-13.152-2.765l-0.099-0.021
							L632.688,341c-2.426-3.717-4.872-7.467-7.344-11.256l-0.055-0.085l0.021-0.099c0.915-4.35,1.837-8.735,2.766-13.152l0.021-0.1
							l0.086-0.056c3.621-2.362,7.267-4.741,10.939-7.136l0.04,0.436c-4.24-1.777-8.944-2.526-13.583-2.12
							c-4.64,0.396-9.2,1.965-13.146,4.54c-4.711,3.058-8.448,7.507-10.617,12.544c-2.194,5.03-2.856,10.583-2.075,15.752
							l0.024,0.157l-0.133,0.087c-37.393,24.488-72.409,47.419-102.885,67.377l-0.116,0.076l-0.117-0.074
							c-4.695-2.978-10.153-4.479-15.475-4.462c-5.332-0.009-10.507,1.542-14.827,4.202c-4.348,2.63-7.848,6.36-10.176,10.57
							c-2.343,4.211-3.525,8.881-3.609,13.411l-0.275-0.153c3.837-2.498,7.559-4.922,10.946-7.126l0.058-0.038l0.068,0.014
							c4.617,0.976,9.065,1.917,13.149,2.78l0.063,0.013l0.035,0.054c2.578,3.962,5.04,7.745,7.33,11.265l0.032,0.049l-0.012,0.057
							c-0.992,4.683-1.926,9.092-2.785,13.148l-0.011,0.05l-0.043,0.028c-4.013,2.609-7.708,5.011-10.951,7.118l-0.017-0.181
							c4.201,1.764,8.282,2.295,11.758,2.26c3.489-0.096,6.401-0.733,8.652-1.494c2.261-0.755,3.859-1.629,4.938-2.186
							C496.404,456.646,496.945,456.338,496.945,456.338z"/>
					</g>
				</g>
			</g>
		</g>
		<g>
			<g>
				<g>
					<g>
						<path style="fill:#263238;" d="M608.51,356.379c-0.021,0.027-0.252-0.125-0.654-0.424c-0.406-0.293-0.958-0.764-1.604-1.384
							c-1.294-1.236-2.901-3.161-4.212-5.573c-1.305-2.417-2.04-4.814-2.368-6.573c-0.167-0.88-0.26-1.6-0.284-2.1
							c-0.031-0.499-0.031-0.776,0.002-0.779c0.084-0.009,0.206,1.087,0.621,2.804c0.411,1.716,1.183,4.044,2.461,6.414
							c1.286,2.364,2.815,4.282,4.028,5.564C607.712,355.613,608.563,356.314,608.51,356.379z"/>
					</g>
				</g>
			</g>
		</g>
	</g>
</g>
<g id="Setting">
	<g>
		<g>
			<g>
				<path style="fill:#FF725E;" d="M209.252,178.507H137.48c-5.451,0-9.869-4.419-9.869-9.87V96.865c0-5.451,4.419-9.87,9.87-9.87
					h71.772c5.451,0,9.87,4.419,9.87,9.87v71.772C219.121,174.088,214.703,178.507,209.252,178.507z"/>
			</g>
		</g>
		<g style="opacity:0.3;">
			<g>
				<path d="M209.252,178.507H137.48c-5.451,0-9.869-4.419-9.869-9.87V96.865c0-5.451,4.419-9.87,9.87-9.87h71.772
					c5.451,0,9.87,4.419,9.87,9.87v71.772C219.121,174.088,214.703,178.507,209.252,178.507z"/>
			</g>
		</g>
		<g>
			<g>
				<path style="fill:#FF725E;" d="M195.827,178.507h-71.772c-5.451,0-9.87-4.419-9.87-9.87V96.865c0-5.451,4.419-9.87,9.87-9.87
					h71.772c5.451,0,9.87,4.419,9.87,9.87v71.772C205.697,174.088,201.278,178.507,195.827,178.507z"/>
			</g>
		</g>
		<g>
			<g>
				<g>
					<g>
						<g>
							<g>
								<g>
									<g>
										<path style="fill:#FFFFFF;" d="M147.056,112.355c1.913-1.156,3.95-2.033,6.051-2.63l1.247-5.99l10.12-0.177l1.456,5.941
											c2.121,0.522,4.188,1.327,6.14,2.415l5.114-3.352l7.281,7.03l-3.17,5.228c1.157,1.914,2.033,3.951,2.63,6.052l5.989,1.246
											l0.178,10.12l-5.942,1.457c-0.522,2.12-1.327,4.187-2.415,6.14l3.352,5.115l-7.029,7.281l-5.229-3.17
											c-1.914,1.156-3.951,2.033-6.052,2.63l-1.247,5.99l-10.119,0.178l-1.457-5.942c-2.121-0.523-4.187-1.328-6.14-2.416
											l-5.114,3.353l-7.281-7.03l3.17-5.228c-1.157-1.914-2.034-3.951-2.63-6.052l-5.989-1.246l-0.178-10.119l5.942-1.457
											c0.523-2.12,1.328-4.187,2.415-6.139l-3.352-5.115l7.03-7.282L147.056,112.355L147.056,112.355z M152.45,125.836
											c-4.165,4.314-4.044,11.188,0.27,15.353c4.314,4.165,11.188,4.044,15.352-0.27c4.165-4.314,4.044-11.188-0.27-15.353
											C163.488,121.402,156.615,121.522,152.45,125.836z"/>
									</g>
								</g>
							</g>
						</g>
					</g>
				</g>
			</g>
		</g>
		<g style="opacity:0.3;">
			<polygon style="fill:#FFFFFF;" points="185.14,86.996 114.186,143.668 114.186,154.703 198.794,86.996 			"/>
		</g>
		<g style="opacity:0.3;">
			<path style="fill:#FFFFFF;" d="M114.275,167.564l91.422-70.926v19.912l-81.868,61.956l0,0c-5.313,0-9.607-4.33-9.564-9.642
				L114.275,167.564z"/>
		</g>
	</g>
</g>
</svg>
